<svg width="500" height="500" viewBox="0 0 500 500" fill="none" xmlns="http://www.w3.org/2000/svg">
<path d="M409.038 247.805C320.628 196.762 177.756 196.762 89.9212 247.806C2.0812 298.854 2.5462 381.611 90.9562 432.655C179.371 483.701 322.244 483.701 410.084 432.653C497.919 381.609 497.454 298.852 409.038 247.805Z" fill="#F5F5F5"/>
<path d="M154.694 330.679C184.313 313.579 232.178 313.579 261.604 330.68C287.606 345.79 290.494 369.189 270.388 386.23C286.611 385.225 303.423 388.316 315.813 395.517C337.56 408.155 337.444 428.643 315.557 441.28C293.668 453.918 258.297 453.918 236.55 441.28C219.249 431.226 215.802 416.205 226.133 404.119C201.2 407.725 173.76 403.891 154.343 392.607C124.917 375.505 125.073 347.78 154.694 330.679Z" fill="#E0E0E0"/>
<path d="M88.517 373.215C81.977 369.439 71.41 369.439 64.913 373.215C58.416 376.991 58.45 383.112 64.99 386.888C71.53 390.664 82.098 390.664 88.595 386.888C95.091 383.112 95.056 376.99 88.517 373.215Z" fill="#E0E0E0"/>
<path d="M92.585 351.49L76.752 351.951L60.919 351.49C60.237 362.182 62.325 373.079 65.203 378.402L65.214 378.4C65.729 379.568 66.765 380.676 68.348 381.589C73.02 384.286 80.569 384.286 85.211 381.589C86.82 380.654 87.855 379.516 88.343 378.317C91.199 372.966 93.264 362.129 92.585 351.49Z" fill="white"/>
<path d="M87.9098 345.005C94.1138 348.587 94.1458 354.393 87.9838 357.975C81.8208 361.557 71.7958 361.557 65.5918 357.975C59.3888 354.394 59.3558 348.587 65.5188 345.005C71.6818 341.423 81.7068 341.423 87.9098 345.005Z" fill="#EBEBEB"/>
<path d="M85.457 346.43C90.297 349.224 90.322 353.755 85.514 356.549C80.706 359.343 72.885 359.343 68.045 356.549C63.205 353.755 63.18 349.225 67.988 346.43C72.796 343.636 80.617 343.636 85.457 346.43Z" fill="#E0E0E0"/>
<g opacity="0.15">
<path d="M85.457 346.43C90.297 349.224 90.322 353.755 85.514 356.549C80.706 359.343 72.885 359.343 68.045 356.549C63.205 353.755 63.18 349.225 67.988 346.43C72.796 343.636 80.617 343.636 85.457 346.43Z" fill="black"/>
</g>
<path d="M102.786 283.927C67.1053 295.61 66.7823 319.48 74.8263 336.479C76.8553 339.92 82.9943 341.768 88.3383 320.627L78.9663 321.829L89.8883 316.293L92.7253 307.813L83.6193 308.489L95.1783 303.628C99.4353 290.745 102.786 283.927 102.786 283.927Z" fill="#FF0000"/>
<path opacity="0.2" d="M102.786 283.927C67.1053 295.61 66.7823 319.48 74.8263 336.479C76.8553 339.92 82.9943 341.768 88.3383 320.627L78.9663 321.829L89.8883 316.293L92.7253 307.813L83.6193 308.489L95.1783 303.628C99.4353 290.745 102.786 283.927 102.786 283.927Z" fill="black"/>
<path opacity="0.2" d="M102.786 283.927C67.1053 295.61 66.7823 319.48 74.8263 336.479C76.8553 339.92 82.9943 341.768 88.3383 320.627L78.9663 321.829L89.8883 316.293L92.7253 307.813L83.6193 308.489L95.1783 303.628C99.4353 290.745 102.786 283.927 102.786 283.927Z" fill="white"/>
<path d="M92.6945 289.896C73.8785 304.177 72.1795 320.55 77.4955 337.642C75.6145 322.592 73.5825 307.374 92.6945 289.896Z" fill="white"/>
<path d="M42.3516 308.174C77.5226 313.126 81.7896 335.303 77.1226 352.471C75.8056 356.013 70.3946 358.754 61.9056 339.953L70.8336 339.515L59.7426 336.174L55.6916 328.748L64.2846 327.865L52.7116 325.258C46.6046 313.968 42.3516 308.174 42.3516 308.174Z" fill="#FF0000"/>
<path opacity="0.2" d="M42.3516 308.174C77.5226 313.126 81.7896 335.303 77.1226 352.471C75.8056 356.013 70.3946 358.754 61.9056 339.953L70.8336 339.515L59.7426 336.174L55.6916 328.748L64.2846 327.865L52.7116 325.258C46.6046 313.968 42.3516 308.174 42.3516 308.174Z" fill="white"/>
<path opacity="0.1" d="M42.3516 308.174C77.5226 313.126 81.7896 335.303 77.1226 352.471C75.8056 356.013 70.3946 358.754 61.9056 339.953L70.8336 339.515L59.7426 336.174L55.6916 328.748L64.2846 327.865L52.7116 325.258C46.6046 313.968 42.3516 308.174 42.3516 308.174Z" fill="black"/>
<path d="M52.7422 312.057C72.6382 322.231 76.9412 337.197 74.8302 353.999C74.0812 339.669 73.4452 325.159 52.7422 312.057Z" fill="white"/>
<path d="M113.081 316.485C80.827 317.012 74.499 336.523 76.784 352.519C77.575 355.859 82.145 358.935 91.9 342.939L83.902 341.545L94.272 339.775L98.754 333.535L91.108 331.777L101.83 330.722C108.598 321.231 113.081 316.485 113.081 316.485Z" fill="#FF0000"/>
<path d="M103.282 318.822C84.2108 325.765 78.6578 338.772 78.6798 354.152C80.9588 341.32 83.1558 328.313 103.282 318.822Z" fill="white"/>
<path opacity="0.2" d="M113.081 316.485C80.827 317.012 74.499 336.523 76.784 352.519C77.575 355.859 82.145 358.935 91.9 342.939L83.902 341.545L94.272 339.775L98.754 333.535L91.108 331.777L101.83 330.722C108.598 321.231 113.081 316.485 113.081 316.485Z" fill="white"/>
<path d="M247.293 271.759C257.395 278.774 268.771 283.626 277.207 293.03C292.963 310.595 293.331 338.858 280.956 358.948C268.581 379.039 245.566 391.11 222.132 393.873C197.545 396.772 171.745 389.978 152.455 374.459C133.165 358.941 120.893 334.694 120.902 309.937C120.911 285.18 133.592 260.528 154.329 247.004C173.248 234.666 200.432 231.146 219.414 245.264C229.011 252.402 235.409 262.936 244.981 270.094C245.743 270.664 246.514 271.218 247.293 271.759Z" fill="#455A64"/>
<path opacity="0.2" d="M247.293 271.759C257.395 278.774 268.771 283.626 277.207 293.03C292.963 310.595 293.331 338.858 280.956 358.948C268.581 379.039 245.566 391.11 222.132 393.873C197.545 396.772 171.745 389.978 152.455 374.459C133.165 358.941 120.893 334.694 120.902 309.937C120.911 285.18 133.592 260.528 154.329 247.004C173.248 234.666 200.432 231.146 219.414 245.264C229.011 252.402 235.409 262.936 244.981 270.094C245.743 270.664 246.514 271.218 247.293 271.759Z" fill="black"/>
<path opacity="0.1" d="M247.293 271.759C257.395 278.774 268.771 283.626 277.207 293.03C292.963 310.595 293.331 338.858 280.956 358.948C268.581 379.039 245.566 391.11 222.132 393.873C197.545 396.772 171.745 389.978 152.455 374.459C133.165 358.941 120.893 334.694 120.902 309.937C120.911 285.18 133.592 260.528 154.329 247.004C173.248 234.666 200.432 231.146 219.414 245.264C229.011 252.402 235.409 262.936 244.981 270.094C245.743 270.664 246.514 271.218 247.293 271.759Z" fill="white"/>
<path opacity="0.1" d="M243.18 374.677C243.157 374.51 243.134 374.342 243.11 374.175C241.504 362.921 232.73 354.166 221.565 352.024C211.84 350.157 202.441 346.579 193.967 341.454C187.936 337.807 182.238 333.337 175.472 331.36C169.229 329.536 161.456 329.817 155.539 332.517C161.226 326.547 170.971 323.92 178.762 326.619C173.37 318.367 168.626 309.476 166.768 299.795C164.91 290.114 166.23 279.49 172.068 271.546C177.025 264.801 185.093 260.443 193.453 259.996C201.812 259.549 210.299 263.022 215.947 269.2C221.729 275.524 224.988 284.424 228.785 292.106C231.512 297.624 234.333 303.269 238.828 307.474C245.611 313.819 255.366 316.106 262.398 322.175C270.372 329.057 273.811 340.06 273.847 350.593C273.871 357.701 272.533 364.696 270.761 371.604C262.686 379.461 252.694 385.389 241.921 389.238C243.549 384.655 243.847 379.533 243.18 374.677Z" fill="black"/>
<path d="M134.103 306.541C134.517 285.475 144.53 264.971 160.89 251.693C170.898 243.57 183.065 238.334 195.742 236.388C198.095 236.619 200.422 237.01 202.712 237.557C188.003 238.418 173.586 243.843 162.091 253.172C146.161 266.101 136.411 286.065 136.009 306.578C135.557 329.618 146.828 353.103 166.158 369.4C181.307 382.173 201.431 390.641 223.55 393.689C223.078 393.752 222.607 393.818 222.135 393.874C220.147 394.108 218.15 394.273 216.149 394.381C196.497 390.569 178.701 382.469 164.93 370.858C145.164 354.194 133.64 330.15 134.103 306.541Z" fill="white"/>
<path d="M268.928 366.977C267.899 371.079 267.696 378.474 267.696 378.474L264.969 377.446C262.325 376.45 259.342 377.129 257.39 379.172L257.256 379.312C256.241 380.374 254.571 380.449 253.465 379.484C252.89 378.982 252.55 378.264 252.526 377.502L252.16 365.893L268.928 366.977Z" fill="#FF9999"/>
<path d="M258.398 410.124C264.058 416.179 274.479 421.47 282.051 416.306L281.201 418.233C273.629 423.397 263.208 418.105 257.548 412.051C251.888 405.996 255.56 401.802 250.466 396.431C247.143 393.143 246.062 389.889 246.062 389.889C246.288 389.311 246.505 388.556 246.772 387.692C247.444 389.203 248.948 392.161 251.316 394.505C256.41 399.875 252.739 404.069 258.398 410.124Z" fill="#F5F5F5"/>
<path d="M249.562 381.366C250.807 379.41 251.221 378.058 251.341 377.237C251.444 376.536 251.861 375.927 252.462 375.553L252.523 377.501C252.547 378.263 252.887 378.981 253.462 379.483C254.568 380.449 256.238 380.373 257.253 379.311L257.387 379.171C259.339 377.128 262.322 376.449 264.966 377.445L267.738 378.489C268.585 378.808 269.136 379.623 269.116 380.529C268.939 388.468 272.647 399.012 276.535 404.806C280.534 406.462 283.987 411.912 282.225 415.907L282.049 416.305C274.477 421.469 264.055 416.177 258.395 410.123C252.735 404.068 256.408 399.874 251.314 394.503C248.946 392.16 247.442 389.201 246.77 387.69C247.307 385.956 248.051 383.741 249.562 381.366Z" fill="#FF0000"/>
<path opacity="0.3" d="M249.562 381.366C250.807 379.41 251.221 378.058 251.341 377.237C251.444 376.536 251.861 375.927 252.462 375.553L252.523 377.501C252.547 378.263 252.887 378.981 253.462 379.483C254.568 380.449 256.238 380.373 257.253 379.311L257.387 379.171C259.339 377.128 262.322 376.449 264.966 377.445L267.738 378.489C268.585 378.808 269.136 379.623 269.116 380.529C268.939 388.468 272.647 399.012 276.535 404.806C280.534 406.462 283.987 411.912 282.225 415.907L282.049 416.305C274.477 421.469 264.055 416.177 258.395 410.123C252.735 404.068 256.408 399.874 251.314 394.503C248.946 392.16 247.442 389.201 246.77 387.69C247.307 385.956 248.051 383.741 249.562 381.366Z" fill="black"/>
<path opacity="0.2" d="M249.562 381.366C250.807 379.41 251.221 378.058 251.341 377.237C251.444 376.536 251.861 375.927 252.462 375.553L252.523 377.501C252.547 378.263 252.887 378.981 253.462 379.483C254.568 380.449 256.238 380.373 257.253 379.311L257.387 379.171C259.339 377.128 262.322 376.449 264.966 377.445L267.738 378.489C268.585 378.808 269.136 379.623 269.116 380.529C268.939 388.468 272.647 399.012 276.535 404.806C280.534 406.462 283.987 411.912 282.225 415.907L282.049 416.305C274.477 421.469 264.055 416.177 258.395 410.123C252.735 404.068 256.408 399.874 251.314 394.503C248.946 392.16 247.442 389.201 246.77 387.69C247.307 385.956 248.051 383.741 249.562 381.366Z" fill="white"/>
<path d="M260.636 392.827C260.166 393.065 259.59 392.864 259.352 392.394C259.117 391.93 259.284 391.349 259.746 391.11C264.1 388.86 267.834 389.607 270.618 391.128C270.787 391.753 270.967 392.375 271.158 392.994C267.952 391.365 264.699 390.773 260.636 392.827Z" fill="white"/>
<path d="M259.241 388.535C258.771 388.773 258.195 388.572 257.957 388.102C257.722 387.638 257.889 387.057 258.351 386.818C262.681 384.581 266.652 385.259 269.664 386.908C269.778 387.554 269.911 388.204 270.055 388.855C266.754 387.114 263.428 386.418 259.241 388.535Z" fill="white"/>
<path d="M262.167 397.098C261.697 397.336 261.121 397.135 260.883 396.665C260.648 396.201 260.815 395.62 261.277 395.381C265.511 393.193 269.159 393.84 271.917 395.275C272.158 395.948 272.411 396.607 272.672 397.256C269.471 395.634 266.223 395.047 262.167 397.098Z" fill="white"/>
<path d="M276.536 404.807C280.535 406.463 283.988 411.913 282.226 415.908L282.05 416.306C274.59 421.394 264.373 416.33 258.66 410.39C263.425 401.045 273.387 403.375 276.536 404.807Z" fill="white"/>
<path d="M263.839 401.269C263.369 401.507 262.793 401.306 262.555 400.836C262.32 400.372 262.487 399.791 262.949 399.552C267.194 397.358 270.85 398.014 273.61 399.457C273.948 400.198 274.297 400.907 274.653 401.59C271.352 399.848 268.025 399.153 263.839 401.269Z" fill="white"/>
<path d="M280.827 390.059C281.542 394.227 284.34 401.075 284.34 401.075L281.43 401.235C278.609 401.39 276.153 403.216 275.192 405.873L275.126 406.055C274.626 407.436 273.129 408.179 271.727 407.742C270.999 407.515 270.398 406.995 270.068 406.307L265.047 395.833L280.827 390.059Z" fill="#FF9999"/>
<path d="M288.608 433.785C296.23 437.04 307.902 437.675 312.745 429.894V432C307.902 439.781 296.231 439.146 288.608 435.891C280.986 432.636 282.654 427.316 275.825 424.458C271.458 422.791 269.156 420.25 269.156 420.25C269.13 419.63 269.024 418.852 268.918 417.953C270.142 419.065 272.713 421.164 275.825 422.352C282.654 425.21 280.986 430.529 288.608 433.785Z" fill="#F5F5F5"/>
<path d="M268.917 411.039C269.266 408.747 269.099 407.343 268.878 406.544C268.689 405.861 268.825 405.136 269.224 404.551L270.067 406.308C270.397 406.996 270.998 407.516 271.726 407.743C273.128 408.18 274.625 407.437 275.125 406.056L275.191 405.874C276.153 403.217 278.608 401.391 281.429 401.236L284.387 401.073C285.291 401.023 286.124 401.546 286.471 402.383C289.513 409.719 297.162 417.869 303.057 421.6C307.384 421.501 312.743 425.093 312.743 429.46V429.895C307.9 437.676 296.229 437.041 288.606 433.786C280.984 430.531 282.652 425.211 275.823 422.353C272.711 421.165 270.14 419.065 268.916 417.954C268.705 416.149 268.493 413.822 268.917 411.039Z" fill="#FF0000"/>
<path opacity="0.3" d="M268.917 411.039C269.266 408.747 269.099 407.343 268.878 406.544C268.689 405.861 268.825 405.136 269.224 404.551L270.067 406.308C270.397 406.996 270.998 407.516 271.726 407.743C273.128 408.18 274.625 407.437 275.125 406.056L275.191 405.874C276.153 403.217 278.608 401.391 281.429 401.236L284.387 401.073C285.291 401.023 286.124 401.546 286.471 402.383C289.513 409.719 297.162 417.869 303.057 421.6C307.384 421.501 312.743 425.093 312.743 429.46V429.895C307.9 437.676 296.229 437.041 288.606 433.786C280.984 430.531 282.652 425.211 275.823 422.353C272.711 421.165 270.14 419.065 268.916 417.954C268.705 416.149 268.493 413.822 268.917 411.039Z" fill="black"/>
<path opacity="0.2" d="M268.917 411.039C269.266 408.747 269.099 407.343 268.878 406.544C268.689 405.861 268.825 405.136 269.224 404.551L270.067 406.308C270.397 406.996 270.998 407.516 271.726 407.743C273.128 408.18 274.625 407.437 275.125 406.056L275.191 405.874C276.153 403.217 278.608 401.391 281.429 401.236L284.387 401.073C285.291 401.023 286.124 401.546 286.471 402.383C289.513 409.719 297.162 417.869 303.057 421.6C307.384 421.501 312.743 425.093 312.743 429.46V429.895C307.9 437.676 296.229 437.041 288.606 433.786C280.984 430.531 282.652 425.211 275.823 422.353C272.711 421.165 270.14 419.065 268.916 417.954C268.705 416.149 268.493 413.822 268.917 411.039Z" fill="white"/>
<path d="M283.673 417.056C283.339 417.463 282.731 417.512 282.324 417.178C281.922 416.848 281.84 416.249 282.166 415.844C285.242 412.028 288.96 411.205 292.12 411.472C292.527 411.976 292.942 412.473 293.367 412.961C289.777 412.766 286.562 413.537 283.673 417.056Z" fill="white"/>
<path d="M280.665 413.692C280.331 414.099 279.723 414.148 279.316 413.814C278.914 413.484 278.832 412.885 279.158 412.48C282.217 408.685 286.123 407.703 289.545 407.997C289.91 408.542 290.294 409.083 290.689 409.621C286.965 409.359 283.641 410.065 280.665 413.692Z" fill="white"/>
<path d="M286.798 420.346C286.464 420.753 285.856 420.802 285.449 420.468C285.047 420.138 284.965 419.54 285.291 419.134C288.282 415.423 291.881 414.543 294.983 414.743C295.475 415.262 295.973 415.762 296.474 416.251C292.89 416.059 289.681 416.833 286.798 420.346Z" fill="white"/>
<path d="M303.059 421.599C307.386 421.5 312.745 425.092 312.745 429.459V429.894C307.973 437.56 296.582 437.051 288.957 433.921C289.545 423.449 299.6 421.56 303.059 421.599Z" fill="white"/>
<path d="M290.013 423.487C289.679 423.894 289.071 423.943 288.664 423.609C288.262 423.279 288.18 422.68 288.506 422.275C291.504 418.555 295.114 417.679 298.222 417.885C298.83 418.426 299.436 418.934 300.037 419.415C296.313 419.155 292.989 419.861 290.013 423.487Z" fill="white"/>
<path d="M236.045 290.912L274.198 312.169C281.289 316.12 285.067 324.156 283.585 332.136L276.18 372.016L282.254 391.31C277.014 398.336 264.985 398.694 264.985 398.694C258.276 385.236 253.353 379.52 249.542 368.245C245.731 356.971 243.19 349.19 243.19 349.19L211.504 340.53C196.692 336.482 185.769 323.843 184.048 308.584C183.508 303.793 183.484 300.521 183.484 300.521L236.045 290.912Z" fill="#263238"/>
<path opacity="0.2" d="M235.755 301.63C235.765 305.846 234.223 310.049 231.488 313.258L258.411 330.11C262.362 332.583 265.287 336.398 266.65 340.855L276.179 372.015L267.585 337.313C266.597 333.321 264.084 329.876 260.586 327.714L235.726 312.349C238.267 305.997 235.755 301.63 235.755 301.63Z" fill="black"/>
<path d="M205.604 316.528C205.592 316.697 205.602 316.866 205.652 317.033C205.656 317.045 205.656 317.057 205.66 317.07C205.704 317.203 205.773 317.334 205.856 317.461C205.865 317.475 205.869 317.489 205.879 317.503C205.971 317.636 206.088 317.764 206.225 317.887C206.233 317.894 206.238 317.902 206.246 317.909C206.393 318.039 206.564 318.162 206.761 318.276L234.682 334.502C234.926 334.644 235.199 334.756 235.483 334.854C235.583 334.888 235.686 334.918 235.79 334.948C235.924 334.986 236.057 335.021 236.196 335.049C236.359 335.083 236.524 335.113 236.693 335.134C236.733 335.139 236.771 335.146 236.811 335.151C237.037 335.175 237.266 335.187 237.495 335.189C237.531 335.189 237.568 335.19 237.604 335.189C237.83 335.187 238.055 335.175 238.278 335.151C238.312 335.147 238.345 335.144 238.379 335.14C238.6 335.113 238.818 335.076 239.031 335.028C239.071 335.019 239.109 335.009 239.148 334.999C239.341 334.951 239.528 334.894 239.71 334.828C239.743 334.816 239.778 334.807 239.811 334.794C240.029 334.71 240.236 334.613 240.429 334.502L286.494 307.906C286.693 307.791 286.867 307.667 287.016 307.537C287.069 307.491 287.101 307.441 287.147 307.394C287.233 307.306 287.325 307.22 287.389 307.127C287.429 307.07 287.447 307.011 287.479 306.953C287.527 306.866 287.583 306.78 287.613 306.691C287.634 306.628 287.633 306.564 287.645 306.5C287.662 306.414 287.688 306.328 287.688 306.241V307.875C287.688 307.962 287.662 308.048 287.645 308.134C287.633 308.198 287.634 308.262 287.613 308.325C287.583 308.414 287.527 308.5 287.479 308.587C287.447 308.645 287.429 308.704 287.389 308.761C287.324 308.853 287.232 308.94 287.147 309.028C287.101 309.075 287.069 309.126 287.016 309.171C286.867 309.302 286.693 309.426 286.494 309.54L240.429 336.136C240.237 336.247 240.029 336.343 239.811 336.427C239.778 336.44 239.743 336.449 239.71 336.461C239.529 336.527 239.342 336.584 239.148 336.632C239.109 336.642 239.07 336.652 239.031 336.661C238.818 336.709 238.6 336.747 238.379 336.773C238.345 336.777 238.312 336.781 238.278 336.785C238.055 336.808 237.83 336.821 237.604 336.823C237.568 336.823 237.531 336.823 237.495 336.823C237.266 336.821 237.037 336.81 236.811 336.785C236.771 336.781 236.732 336.773 236.693 336.768C236.525 336.747 236.36 336.717 236.196 336.683C236.057 336.655 235.924 336.619 235.79 336.582C235.686 336.553 235.583 336.523 235.483 336.488C235.199 336.39 234.926 336.278 234.682 336.136L206.76 319.91C206.563 319.796 206.392 319.673 206.245 319.543C206.237 319.536 206.232 319.528 206.224 319.52C206.088 319.397 205.971 319.269 205.878 319.136C205.868 319.122 205.864 319.108 205.855 319.094C205.771 318.966 205.702 318.836 205.659 318.703C205.655 318.691 205.655 318.678 205.651 318.666C205.614 318.544 205.619 318.421 205.616 318.298L205.59 318.301V316.529L205.604 316.528Z" fill="#E0E0E0"/>
<path opacity="0.2" d="M205.604 316.528C205.592 316.697 205.602 316.866 205.652 317.033C205.656 317.045 205.656 317.057 205.66 317.07C205.704 317.203 205.773 317.334 205.856 317.461C205.865 317.475 205.869 317.489 205.879 317.503C205.971 317.636 206.088 317.764 206.225 317.887C206.233 317.894 206.238 317.902 206.246 317.909C206.393 318.039 206.564 318.162 206.761 318.276L234.682 334.502C234.926 334.644 235.199 334.756 235.483 334.854C235.583 334.888 235.686 334.918 235.79 334.948C235.924 334.986 236.057 335.021 236.196 335.049C236.359 335.083 236.524 335.113 236.693 335.134C236.733 335.139 236.771 335.146 236.811 335.151C237.037 335.175 237.266 335.187 237.495 335.189C237.531 335.189 237.568 335.19 237.604 335.189C237.83 335.187 238.055 335.175 238.278 335.151C238.312 335.147 238.345 335.144 238.379 335.14C238.6 335.113 238.818 335.076 239.031 335.028C239.071 335.019 239.109 335.009 239.148 334.999C239.341 334.951 239.528 334.894 239.71 334.828C239.743 334.816 239.778 334.807 239.811 334.794C240.029 334.71 240.236 334.613 240.429 334.502L286.494 307.906C286.693 307.791 286.867 307.667 287.016 307.537C287.069 307.491 287.101 307.441 287.147 307.394C287.233 307.306 287.325 307.22 287.389 307.127C287.429 307.07 287.447 307.011 287.479 306.953C287.527 306.866 287.583 306.78 287.613 306.691C287.634 306.628 287.633 306.564 287.645 306.5C287.662 306.414 287.688 306.328 287.688 306.241V307.875C287.688 307.962 287.662 308.048 287.645 308.134C287.633 308.198 287.634 308.262 287.613 308.325C287.583 308.414 287.527 308.5 287.479 308.587C287.447 308.645 287.429 308.704 287.389 308.761C287.324 308.853 287.232 308.94 287.147 309.028C287.101 309.075 287.069 309.126 287.016 309.171C286.867 309.302 286.693 309.426 286.494 309.54L240.429 336.136C240.237 336.247 240.029 336.343 239.811 336.427C239.778 336.44 239.743 336.449 239.71 336.461C239.529 336.527 239.342 336.584 239.148 336.632C239.109 336.642 239.07 336.652 239.031 336.661C238.818 336.709 238.6 336.747 238.379 336.773C238.345 336.777 238.312 336.781 238.278 336.785C238.055 336.808 237.83 336.821 237.604 336.823C237.568 336.823 237.531 336.823 237.495 336.823C237.266 336.821 237.037 336.81 236.811 336.785C236.771 336.781 236.732 336.773 236.693 336.768C236.525 336.747 236.36 336.717 236.196 336.683C236.057 336.655 235.924 336.619 235.79 336.582C235.686 336.553 235.583 336.523 235.483 336.488C235.199 336.39 234.926 336.278 234.682 336.136L206.76 319.91C206.563 319.796 206.392 319.673 206.245 319.543C206.237 319.536 206.232 319.528 206.224 319.52C206.088 319.397 205.971 319.269 205.878 319.136C205.868 319.122 205.864 319.108 205.855 319.094C205.771 318.966 205.702 318.836 205.659 318.703C205.655 318.691 205.655 318.678 205.651 318.666C205.614 318.544 205.619 318.421 205.616 318.298L205.59 318.301V316.529L205.604 316.528Z" fill="black"/>
<path d="M287.611 306.691C287.581 306.78 287.525 306.866 287.477 306.953C287.445 307.011 287.427 307.07 287.387 307.127C287.322 307.219 287.23 307.306 287.145 307.394C287.099 307.441 287.067 307.491 287.014 307.537C286.865 307.668 286.691 307.791 286.492 307.906L240.427 334.502C240.235 334.613 240.027 334.71 239.809 334.794C239.776 334.807 239.741 334.816 239.708 334.828C239.527 334.894 239.34 334.951 239.146 334.999C239.107 335.009 239.068 335.019 239.029 335.028C238.816 335.076 238.598 335.114 238.377 335.14C238.343 335.144 238.31 335.148 238.276 335.151C238.053 335.174 237.828 335.187 237.602 335.189C237.566 335.189 237.529 335.189 237.493 335.189C237.264 335.187 237.035 335.175 236.809 335.151C236.769 335.147 236.73 335.139 236.691 335.134C236.523 335.113 236.358 335.082 236.194 335.049C236.055 335.021 235.922 334.985 235.788 334.948C235.684 334.919 235.581 334.889 235.481 334.854C235.197 334.756 234.924 334.644 234.68 334.502L206.759 318.276C206.562 318.162 206.391 318.039 206.244 317.909C206.236 317.902 206.231 317.894 206.223 317.887C206.087 317.764 205.97 317.636 205.877 317.503C205.867 317.489 205.863 317.475 205.854 317.461C205.77 317.333 205.701 317.203 205.658 317.07C205.654 317.058 205.654 317.046 205.65 317.033C205.6 316.866 205.59 316.697 205.602 316.528C205.642 315.955 206.03 315.389 206.786 314.952L252.851 288.356C254.439 287.439 257.003 287.439 258.581 288.356L286.502 304.582C287.294 305.042 287.687 305.642 287.687 306.241C287.687 306.328 287.661 306.414 287.644 306.5C287.631 306.564 287.632 306.629 287.611 306.691Z" fill="#E0E0E0"/>
<path d="M283.778 306.241L239.026 332.078C238.98 332.105 238.93 332.128 238.85 332.163L238.753 332.196C238.67 332.227 238.582 332.255 238.403 332.298C238.283 332.327 238.161 332.346 238.157 332.35L237.988 332.366C237.869 332.378 237.739 332.385 237.552 332.388H237.512C237.374 332.387 237.236 332.38 237.054 332.358C236.958 332.346 236.865 332.328 236.762 332.306C236.692 332.292 236.4 332.209 236.4 332.209C236.293 332.172 236.187 332.138 236.09 332.08L221.695 323.71L267.922 297.021L283.778 306.241Z" fill="#E0E0E0"/>
<path d="M237.5 332.39C237.52 332.39 237.532 332.389 237.55 332.389H237.566L237.5 332.39Z" fill="#263238"/>
<path d="M241.202 299.134L249.621 304.086C250.184 304.417 250.18 305.231 249.615 305.558L237.026 312.826C236.59 313.078 236.051 313.076 235.616 312.82L227.197 307.868C226.635 307.537 226.638 306.723 227.203 306.397L239.791 299.129C240.229 298.876 240.767 298.879 241.202 299.134Z" fill="#E0E0E0"/>
<path opacity="0.4" d="M283.778 306.241L239.026 332.078C238.98 332.105 238.93 332.128 238.85 332.163L238.753 332.196C238.67 332.227 238.582 332.255 238.403 332.298C238.283 332.327 238.161 332.346 238.157 332.35L237.988 332.366C237.869 332.378 237.739 332.385 237.552 332.388H237.512C237.374 332.387 237.236 332.38 237.054 332.358C236.958 332.346 236.865 332.328 236.762 332.306C236.692 332.292 236.4 332.209 236.4 332.209C236.293 332.172 236.187 332.138 236.09 332.08L221.695 323.71L267.922 297.021L283.778 306.241Z" fill="black"/>
<path opacity="0.4" d="M241.202 299.134L249.621 304.086C250.184 304.417 250.18 305.231 249.615 305.558L237.026 312.826C236.59 313.078 236.051 313.076 235.616 312.82L227.197 307.868C226.635 307.537 226.638 306.723 227.203 306.397L239.791 299.129C240.229 298.876 240.767 298.879 241.202 299.134Z" fill="black"/>
<path d="M237.83 332.85L242.599 302.526C242.861 300.861 243.859 299.403 245.316 298.556L291.7 271.588C292.111 271.349 292.555 271.353 292.932 271.511L292.934 271.503L294.036 272.053L293.664 272.192C293.781 272.433 293.833 272.712 293.786 273.015L289.018 303.339C288.756 305.004 287.758 306.462 286.301 307.309L239.917 334.277C239.818 334.334 239.716 334.367 239.615 334.398L239.658 334.845L238.59 334.319L238.61 334.316C238.092 334.064 237.726 333.512 237.83 332.85Z" fill="#E0E0E0"/>
<path opacity="0.3" d="M237.83 332.85L242.599 302.526C242.861 300.861 243.859 299.403 245.316 298.556L291.7 271.588C292.111 271.349 292.555 271.353 292.932 271.511L292.934 271.503L294.036 272.053L293.664 272.192C293.781 272.433 293.833 272.712 293.786 273.015L289.018 303.339C288.756 305.004 287.758 306.462 286.301 307.309L239.917 334.277C239.818 334.334 239.716 334.367 239.615 334.398L239.658 334.845L238.59 334.319L238.61 334.316C238.092 334.064 237.726 333.512 237.83 332.85Z" fill="black"/>
<path d="M246.25 299.022L292.634 272.054C293.653 271.462 294.903 272.317 294.72 273.481L289.951 303.805C289.689 305.47 288.692 306.928 287.234 307.775L240.85 334.743C239.831 335.335 238.581 334.48 238.764 333.316L243.533 302.992C243.795 301.328 244.793 299.869 246.25 299.022Z" fill="#E0E0E0"/>
<path d="M268.726 299.806C266.479 301.103 264.425 304.071 264.123 306.436C263.821 308.802 265.383 309.681 267.631 308.384C269.868 307.093 271.932 304.119 272.234 301.754C272.536 299.388 270.963 298.515 268.726 299.806Z" fill="white"/>
<path d="M241.344 253.737L253.912 263.945L262.199 250.499L251.771 238.754C242.606 242.816 241.344 253.737 241.344 253.737Z" fill="#FF4D4D"/>
<path d="M222.902 219.014C232.781 217.899 233.696 220.094 240.099 226.131C246.502 232.168 252.978 238.973 252.978 238.973C243.099 243.803 242.001 255.548 242.001 255.548C236.623 251.377 232.07 248.084 232.07 248.084L222.902 219.014Z" fill="#455A64"/>
<path opacity="0.5" d="M222.902 219.014C232.781 217.899 233.696 220.094 240.099 226.131C246.502 232.168 252.978 238.973 252.978 238.973C243.099 243.803 242.001 255.548 242.001 255.548C236.623 251.377 232.07 248.084 232.07 248.084L222.902 219.014Z" fill="white"/>
<path d="M186.824 226.863C200.874 220.277 211.412 219.508 222.9 219.014C240.097 230.083 233.657 239.303 233.364 254.085C233.071 268.867 229.851 277.794 240.096 293.162C217.558 311.163 189.092 305.472 182.286 301.146C177.896 260.232 179.182 230.019 186.824 226.863Z" fill="#455A64"/>
<path opacity="0.7" d="M186.824 226.863C200.874 220.277 211.412 219.508 222.9 219.014C240.097 230.083 233.657 239.303 233.364 254.085C233.071 268.867 229.851 277.794 240.096 293.162C217.558 311.163 189.092 305.472 182.286 301.146C177.896 260.232 179.182 230.019 186.824 226.863Z" fill="white"/>
<path d="M229.657 196.633C231.821 194.607 233.192 191.756 233.424 188.802C233.656 185.847 232.747 182.817 230.927 180.478C232.14 179.689 233.26 178.495 233.679 177.11C234.082 175.777 233.593 174.22 232.5 173.356C231.407 172.492 229.78 172.376 228.575 173.076C229.115 171.017 227.853 168.478 225.893 167.648C223.933 166.818 221.423 167.629 220.32 169.449C220.232 168.095 219.132 166.923 217.799 166.669C216.465 166.416 215.089 166.831 213.873 167.433C212.657 168.035 211.538 168.825 210.308 169.398C208.23 170.367 205.92 170.682 203.674 171.138C201.427 171.594 199.131 172.241 197.383 173.725C195.636 175.209 194.328 178.316 195.681 180.668C194.933 179.936 193.829 179.485 192.787 179.585C191.745 179.685 190.759 180.264 190.164 181.125C191.698 181.819 193.194 182.587 194.727 183.281C193.215 182.825 191.217 184.11 190.621 185.573C190.025 187.035 190.204 188.687 190.454 190.246C191.404 196.17 193.259 201.942 195.873 207.342C197.225 210.133 199.03 213.043 201.971 214.03L229.657 196.633Z" fill="#37474F"/>
<path d="M229.5 182.135C227.082 184.617 223.113 186.244 219.648 186.282C216.183 186.32 212.828 185.177 209.488 184.257C209.199 185.867 208.381 187.377 207.191 188.498C206 189.619 204.088 190.367 202.464 190.559C202.942 193.683 202.93 196.881 202.427 200.001C202.32 200.663 201.875 201.265 201.231 201.452C200.106 201.78 199.359 200.626 198.811 199.693C198.187 198.631 197.416 197.618 196.37 196.969C195.324 196.32 193.96 196.086 192.845 196.608C191.934 197.034 191.287 197.916 190.986 198.876C190.685 199.836 190.697 200.87 190.84 201.866C191.079 203.526 191.694 205.159 192.781 206.438C193.867 207.717 195.452 208.611 197.128 208.679C198.804 208.747 200.473 208.073 201.306 206.616L201.38 206.921C201.501 207.421 201.658 207.906 201.837 208.38C203.33 212.341 206.75 215.311 210.963 216.193C213.079 216.636 215.431 217.06 217.828 217.424C219.006 217.603 220.191 217.771 221.372 217.911C225.876 218.445 230.022 215.391 230.813 210.925C232.426 201.802 232.962 191.173 229.5 182.135Z" fill="#FF9999"/>
<path d="M201.836 208.38V224.276C204.774 228.319 209.64 231.053 214.628 231.361C216.25 231.461 218.017 231.274 219.223 230.186C220.196 229.308 220.65 227.891 220.368 226.61C220.16 225.667 219.56 224.825 218.757 224.291C218.184 223.91 217.827 223.281 217.827 222.593V217.424C215.43 217.061 213.078 216.636 210.962 216.193C206.748 215.311 203.329 212.342 201.836 208.38Z" fill="#FF9999"/>
<path opacity="0.2" d="M212.457 219.692C214.212 220.178 216.014 220.443 217.826 220.644V217.423C215.429 217.06 213.077 216.635 210.961 216.192C207 215.363 203.762 212.676 202.145 209.067C202.564 211.54 203.639 213.907 205.363 215.721C207.253 217.711 209.813 218.96 212.457 219.692Z" fill="black"/>
<path d="M222.593 193.66H221.598H220.535C216.225 190.822 211.085 190.265 206.328 192.212V194.376L206.898 194.679C207.308 196.015 207.284 197.539 207.425 198.932C207.566 200.325 207.955 201.793 208.995 202.7C210.126 203.686 211.738 203.776 213.223 203.795C214.418 203.811 215.659 203.803 216.743 203.286C218.022 202.677 218.921 201.42 219.425 200.068C219.929 198.716 219.846 197.933 220.476 196.305C220.779 195.524 221.599 195.55 221.599 195.55C221.599 195.55 222.366 195.524 222.649 196.305C223.239 197.933 223.161 198.716 223.632 200.068C224.103 201.42 224.944 202.677 226.142 203.286C227.156 203.802 228.317 203.811 229.435 203.795C230.824 203.775 232.332 203.686 233.391 202.7C234.364 201.793 234.727 200.325 234.859 198.932C234.991 197.539 234.969 196.015 235.352 194.679L235.885 194.376V192.212C231.435 190.265 226.625 190.822 222.593 193.66ZM219.498 194.771L219.416 195.545C219.295 196.692 218.907 198.222 218.38 199.637C218.113 200.354 217.481 201.645 216.256 202.228C215.503 202.587 214.597 202.636 213.73 202.636L213.266 202.632C211.964 202.615 210.622 202.536 209.771 201.794C209.109 201.217 208.715 200.229 208.568 198.773C208.531 198.412 208.506 198.04 208.481 197.665C208.413 196.631 208.47 194.362 208.562 192.723C209.745 192.394 210.952 192.227 212.166 192.227C214.682 192.227 217.178 192.955 219.411 194.336C219.533 194.41 219.498 194.771 219.498 194.771ZM233.868 197.665C233.845 198.039 233.822 198.411 233.787 198.773C233.65 200.229 233.281 201.218 232.662 201.794C231.866 202.536 230.61 202.615 229.392 202.632L228.958 202.636C228.147 202.636 227.3 202.587 226.595 202.228C225.449 201.645 224.858 200.354 224.608 199.637C224.115 198.222 223.752 196.692 223.639 195.545L223.563 194.772C223.563 194.772 223.53 194.411 223.643 194.337C225.732 192.956 228.067 192.228 230.421 192.228C231.557 192.228 232.686 192.394 233.793 192.724C233.879 194.361 233.932 196.631 233.868 197.665Z" fill="#FF0000"/>
<path d="M206.328 192.212L194.762 196.37C195.879 196.637 196.548 197.012 197.026 197.431C197.15 197.54 206.328 194.376 206.328 194.376V192.212Z" fill="#FF0000"/>
<path d="M221.547 195.727L227.382 202.794L222.029 204.685L221.547 195.727Z" fill="#FF4D4D"/>
<path d="M213.305 196.611C213.299 197.496 214.013 198.218 214.898 198.224C215.783 198.229 216.505 197.516 216.511 196.631C216.517 195.746 215.804 195.024 214.918 195.018C214.033 195.013 213.311 195.726 213.305 196.611Z" fill="#37474F"/>
<path d="M226.766 196.177C226.76 197.062 227.474 197.784 228.358 197.79C229.243 197.796 229.965 197.083 229.971 196.198C229.976 195.313 229.263 194.591 228.378 194.585C227.494 194.579 226.771 195.292 226.766 196.177Z" fill="#37474F"/>
<path d="M225.918 189.064C227.349 189.226 228.779 189.388 230.21 189.549C230.121 188.64 229.306 187.836 228.41 187.661C227.514 187.487 226.342 188.256 225.918 189.064Z" fill="#37474F"/>
<path d="M215.965 188.523C214.654 189.119 213.343 189.714 212.033 190.309C211.837 189.417 212.364 188.401 213.163 187.957C213.961 187.515 215.312 187.885 215.965 188.523Z" fill="#37474F"/>
<path d="M216.261 207.662C217.844 208.192 219.428 208.722 221.011 209.252C220.493 210.352 218.913 211.007 217.749 210.657C216.586 210.305 216.086 208.864 216.261 207.662Z" fill="#FF4D4D"/>
<path opacity="0.3" d="M216.261 207.662C217.844 208.192 219.428 208.722 221.011 209.252C220.493 210.352 218.913 211.007 217.749 210.657C216.586 210.305 216.086 208.864 216.261 207.662Z" fill="black"/>
<path d="M219.318 210.6C218.793 210.765 218.235 210.802 217.748 210.656C216.834 210.381 216.336 209.433 216.246 208.457C216.881 208.377 217.543 208.501 218.086 208.84C218.713 209.229 219.15 209.883 219.318 210.6Z" fill="#FF4D4D"/>
<path d="M231.135 230.153L227.084 232.01C226.249 232.393 225.898 233.393 226.31 234.214C226.633 234.856 227.339 235.21 228.047 235.083L238.018 233.295L234.977 229.425L231.135 230.153Z" fill="#FF4D4D"/>
<path d="M240.069 233.718L252.67 263.397C254.509 267.728 259.447 269.824 263.839 268.139C269.365 266.019 271.228 259.133 267.524 254.516L246.937 228.857C246.226 227.97 245.393 227.188 244.465 226.532L238.187 222.098C236.42 220.85 234.377 220.049 232.233 219.764L229.172 217.516C228.332 216.899 227.235 216.752 226.262 217.127L221.547 218.941C222.164 220.289 223.652 221.008 225.092 220.655L226.972 220.194L229.168 221.813L226.311 225.787C225.528 226.876 225.751 228.389 226.814 229.206L232.213 233.354C232.708 233.734 233.356 233.852 233.952 233.669C234.906 233.378 235.481 232.407 235.277 231.43L235.27 231.398C237.32 233.742 240.069 233.718 240.069 233.718Z" fill="#FF9999"/>
<path d="M229.17 221.814C229.859 220.904 231.135 220.19 231.135 220.19L227.348 220.47L229.17 221.814Z" fill="#FF4D4D"/>
<path d="M190.554 265.141L186.259 279.866L212.519 298.518L221.347 302.234C223.687 303.219 225.711 304.829 227.198 306.886L234.399 316.848C235.204 318.523 231.45 321.239 229.649 321.701C227.536 322.242 225.292 321.68 223.683 320.207L218.124 315.117L216.59 314.575C212.1 312.989 208.204 310.066 205.425 306.199L174.643 294.246C169.035 292.069 165.969 286.015 167.531 280.206L172.638 261.214L190.554 265.141Z" fill="#FF9999"/>
<path d="M190.586 267.202L197.872 245.408C197.872 245.408 198.117 225.464 189.65 226.078C181.183 226.692 176.888 231.6 170.385 261.173L170.246 261.81C176.262 265.625 183.469 267.537 190.586 267.202Z" fill="#455A64"/>
<path opacity="0.5" d="M190.586 267.202L197.872 245.408C197.872 245.408 198.117 225.464 189.65 226.078C181.183 226.692 176.888 231.6 170.385 261.173L170.246 261.81C176.262 265.625 183.469 267.537 190.586 267.202Z" fill="white"/>
<path d="M313.177 257.865L313.154 249.88L307.789 246.788L307.811 254.588V254.765L313.177 257.865Z" fill="#E0E0E0"/>
<path d="M313.439 374.158L313.177 257.865L307.812 254.766L308.074 370.882C308.076 371.645 308.344 372.182 308.773 372.445L308.77 372.447L308.792 372.46C308.798 372.463 308.803 372.467 308.809 372.47L314.116 375.702C313.7 375.433 313.441 374.905 313.439 374.158Z" fill="#FF0000"/>
<path opacity="0.2" d="M313.439 374.158L313.177 257.865L307.812 254.766L308.074 370.882C308.076 371.645 308.344 372.182 308.773 372.445L308.77 372.447L308.792 372.46C308.798 372.463 308.803 372.467 308.809 372.47L314.116 375.702C313.7 375.433 313.441 374.905 313.439 374.158Z" fill="white"/>
<path d="M315.914 375.567C315.75 375.662 315.59 375.734 315.434 375.788C315.589 375.735 315.749 375.662 315.914 375.567Z" fill="#455A64"/>
<path d="M315.097 375.867C315.064 375.873 315.029 375.885 314.996 375.889C315.029 375.886 315.064 375.873 315.097 375.867Z" fill="#455A64"/>
<path d="M314.242 375.779V375.771C314.232 375.766 314.22 375.764 314.211 375.759L314.242 375.779Z" fill="#455A64"/>
<path d="M313.17 249.865L313.157 245.265C313.153 243.698 314.251 241.79 315.615 241.003L454.957 160.554C455.627 160.167 456.235 160.128 456.681 160.372L451.37 157.126V157.131C450.919 156.851 450.29 156.875 449.591 157.278L310.249 237.727C308.885 238.515 307.787 240.422 307.791 241.989L307.804 246.589L307.811 246.592L307.789 246.605L307.79 246.789L313.155 249.881L313.17 249.865Z" fill="#FF0000"/>
<path opacity="0.3" d="M313.17 249.865L313.157 245.265C313.153 243.698 314.251 241.79 315.615 241.003L454.957 160.554C455.627 160.167 456.235 160.128 456.681 160.372L451.37 157.126V157.131C450.919 156.851 450.29 156.875 449.591 157.278L310.249 237.727C308.885 238.515 307.787 240.422 307.791 241.989L307.804 246.589L307.811 246.592L307.789 246.605L307.79 246.789L313.155 249.881L313.17 249.865Z" fill="white"/>
<path opacity="0.2" d="M313.177 257.865L313.154 249.88L307.789 246.788L307.811 254.588V254.765L313.177 257.865Z" fill="black"/>
<path d="M454.956 160.554C456.315 159.769 457.425 160.402 457.43 161.969L457.443 166.569L313.169 249.866L313.156 245.266C313.152 243.699 314.25 241.791 315.614 241.004L454.956 160.554Z" fill="#FF0000"/>
<path d="M445.616 168.163C446.345 167.742 446.938 168.08 446.94 168.917C446.942 169.754 446.353 170.774 445.625 171.195C444.896 171.616 444.303 171.278 444.301 170.441C444.298 169.604 444.887 168.584 445.616 168.163Z" fill="white"/>
<path d="M449.639 165.839C450.368 165.418 450.961 165.756 450.963 166.594C450.965 167.431 450.376 168.451 449.648 168.872C448.92 169.293 448.326 168.955 448.324 168.118C448.322 167.28 448.911 166.26 449.639 165.839Z" fill="white"/>
<path d="M453.663 163.518C454.392 163.097 454.985 163.435 454.987 164.272C454.989 165.109 454.4 166.129 453.672 166.55C452.943 166.971 452.35 166.633 452.348 165.796C452.346 164.958 452.935 163.938 453.663 163.518Z" fill="white"/>
<path d="M342.187 228.553C342.729 228.24 343.232 228.292 343.491 228.695L344.801 230.711C345.06 231.114 345.559 231.174 346.105 230.858L457.43 166.585L457.453 174.58L313.179 257.877L313.156 249.882L317.43 247.414C317.977 247.099 318.473 246.464 318.734 245.761L320.023 242.245C320.279 241.545 320.78 240.913 321.322 240.6L342.187 228.553Z" fill="#E0E0E0"/>
<path d="M457.454 174.568L457.716 290.861C457.72 292.423 456.618 294.333 455.258 295.118L315.916 375.567C314.552 376.354 313.447 375.719 313.442 374.157L313.18 257.864L457.454 174.568Z" fill="#FF0000"/>
<g opacity="0.4">
<path d="M457.454 174.568L457.716 290.861C457.72 292.423 456.618 294.333 455.258 295.118L315.916 375.567C314.552 376.354 313.447 375.719 313.442 374.157L313.18 257.864L457.454 174.568Z" fill="white"/>
</g>
<path d="M451.747 171.495C452.716 170.936 453.5 171.383 453.503 172.496C453.506 173.609 452.727 174.964 451.758 175.523L329.632 246.032C328.663 246.591 327.874 246.142 327.871 245.029C327.868 243.916 328.652 242.564 329.62 242.004L451.747 171.495Z" fill="white"/>
<path d="M315.485 250.59C315.551 250.552 315.617 250.544 315.666 250.578C315.76 250.642 315.751 250.825 315.654 250.989L314.883 252.247L316.905 251.08C317.043 251.001 317.154 251.064 317.155 251.217C317.155 251.375 317.045 251.567 316.907 251.647L314.885 252.814L315.66 253.179C315.758 253.23 315.768 253.403 315.674 253.57C315.625 253.659 315.559 253.728 315.492 253.767C315.434 253.8 315.372 253.816 315.323 253.793L314.084 253.199L314.035 253.151L314.026 253.136L314.004 253.037L314.026 252.912L314.035 252.891L314.079 252.789L315.315 250.766C315.364 250.686 315.424 250.625 315.485 250.59Z" fill="#E0E0E0"/>
<path d="M319.857 248.065C319.917 248.03 319.978 248.021 320.027 248.044L321.266 248.633L321.315 248.686L321.328 248.694L321.346 248.796L321.328 248.918L321.315 248.946L321.271 249.043L320.035 251.071C319.986 251.15 319.929 251.204 319.866 251.24C319.799 251.278 319.737 251.284 319.688 251.251C319.594 251.193 319.598 251.011 319.7 250.845L320.466 249.589L318.444 250.756C318.311 250.833 318.199 250.77 318.199 250.611C318.198 250.458 318.309 250.266 318.442 250.189L320.464 249.022L319.693 248.654C319.59 248.606 319.585 248.43 319.678 248.258C319.727 248.171 319.791 248.103 319.857 248.065Z" fill="#E0E0E0"/>
<path d="M324.015 245.666C324.321 245.489 324.611 245.44 324.851 245.51L325.037 245.264C325.077 245.21 325.123 245.168 325.17 245.141C325.217 245.114 325.263 245.103 325.303 245.11C325.388 245.123 325.428 245.212 325.415 245.332L325.31 246.093C325.301 246.18 325.261 246.269 325.204 246.349C325.164 246.398 325.115 246.446 325.071 246.472L325.009 246.498L324.409 246.666C324.316 246.689 324.244 246.643 324.226 246.541C324.208 246.439 324.252 246.306 324.336 246.196L324.394 246.117C324.278 246.117 324.149 246.156 324.016 246.233C323.527 246.515 323.129 247.206 323.13 247.767C323.132 248.334 323.533 248.557 324.022 248.275C324.346 248.088 324.643 247.717 324.802 247.298C324.844 247.179 324.928 247.077 325.016 247.027C325.056 247.004 325.097 246.991 325.135 246.994C325.255 247.001 325.3 247.149 325.234 247.326C324.991 247.972 324.53 248.551 324.023 248.843C323.263 249.282 322.639 248.931 322.637 248.053C322.635 247.178 323.255 246.104 324.015 245.666Z" fill="#E0E0E0"/>
<g opacity="0.3">
<path d="M315.485 250.59C315.551 250.552 315.617 250.544 315.666 250.578C315.76 250.642 315.751 250.825 315.654 250.989L314.883 252.247L316.905 251.08C317.043 251.001 317.154 251.064 317.155 251.217C317.155 251.375 317.045 251.567 316.907 251.647L314.885 252.814L315.66 253.179C315.758 253.23 315.768 253.403 315.674 253.57C315.625 253.659 315.559 253.728 315.492 253.767C315.434 253.8 315.372 253.816 315.323 253.793L314.084 253.199L314.035 253.151L314.026 253.136L314.004 253.037L314.026 252.912L314.035 252.891L314.079 252.789L315.315 250.766C315.364 250.686 315.424 250.625 315.485 250.59Z" fill="black"/>
</g>
<g opacity="0.3">
<path d="M319.857 248.065C319.917 248.03 319.978 248.021 320.027 248.044L321.266 248.633L321.315 248.686L321.328 248.694L321.346 248.796L321.328 248.918L321.315 248.946L321.271 249.043L320.035 251.071C319.986 251.15 319.929 251.204 319.866 251.24C319.799 251.278 319.737 251.284 319.688 251.251C319.594 251.193 319.598 251.011 319.7 250.845L320.466 249.589L318.444 250.756C318.311 250.833 318.199 250.77 318.199 250.611C318.198 250.458 318.309 250.266 318.442 250.189L320.464 249.022L319.693 248.654C319.59 248.606 319.585 248.43 319.678 248.258C319.727 248.171 319.791 248.103 319.857 248.065Z" fill="black"/>
</g>
<g opacity="0.3">
<path d="M324.015 245.666C324.321 245.489 324.611 245.44 324.851 245.51L325.037 245.264C325.077 245.21 325.123 245.168 325.17 245.141C325.217 245.114 325.263 245.103 325.303 245.11C325.388 245.123 325.428 245.212 325.415 245.332L325.31 246.093C325.301 246.18 325.261 246.269 325.204 246.349C325.164 246.398 325.115 246.446 325.071 246.472L325.009 246.498L324.409 246.666C324.316 246.689 324.244 246.643 324.226 246.541C324.208 246.439 324.252 246.306 324.336 246.196L324.394 246.117C324.278 246.117 324.149 246.156 324.016 246.233C323.527 246.515 323.129 247.206 323.13 247.767C323.132 248.334 323.533 248.557 324.022 248.275C324.346 248.088 324.643 247.717 324.802 247.298C324.844 247.179 324.928 247.077 325.016 247.027C325.056 247.004 325.097 246.991 325.135 246.994C325.255 247.001 325.3 247.149 325.234 247.326C324.991 247.972 324.53 248.551 324.023 248.843C323.263 249.282 322.639 248.931 322.637 248.053C322.635 247.178 323.255 246.104 324.015 245.666Z" fill="black"/>
</g>
<path d="M397.628 238.896L397.851 317.716L321.743 361.657L321.52 282.837L397.628 238.896Z" fill="white"/>
<path d="M387.04 261.779L352.76 316.297L352.814 329.807L359.409 316.698L352.814 329.807L347.855 316.005L387.04 261.779Z" fill="#FF0000"/>
<path opacity="0.3" d="M387.04 261.779L352.76 316.297L352.814 329.807L359.409 316.698L352.814 329.807L347.855 316.005L387.04 261.779Z" fill="black"/>
<path d="M352.758 316.297L359.407 316.698L352.812 329.807L352.758 316.297Z" fill="#FF0000"/>
<path opacity="0.5" d="M352.758 316.297L359.407 316.698L352.812 329.807L352.758 316.297Z" fill="black"/>
<path d="M387.04 261.779L347.855 316.005L331.469 315.015L387.04 261.779Z" fill="#FF0000"/>
<path d="M352.758 316.297L387.038 261.779L379.872 317.933L359.407 316.698L352.758 316.297Z" fill="#FF0000"/>
<path opacity="0.3" d="M331.469 315.015L347.855 316.005L352.814 329.807L359.409 316.698L379.873 317.933L387.04 261.779L331.469 315.015Z" fill="white"/>
<path d="M450.868 181.784C452.257 180.982 453.386 181.625 453.39 183.222C453.394 184.819 452.273 186.76 450.884 187.563L341.518 250.748C340.129 251.55 338.996 250.909 338.992 249.312C338.988 247.715 340.112 245.771 341.502 244.969L450.868 181.784Z" fill="#FF0000"/>
<g opacity="0.7">
<path d="M450.868 181.784C452.257 180.982 453.386 181.625 453.39 183.222C453.394 184.819 452.273 186.76 450.884 187.563L341.518 250.748C340.129 251.55 338.996 250.909 338.992 249.312C338.988 247.715 340.112 245.771 341.502 244.969L450.868 181.784Z" fill="white"/>
</g>
<path d="M333.591 249.379C334.98 248.577 336.109 249.22 336.113 250.817C336.118 252.414 334.996 254.356 333.607 255.158L323.874 260.915C322.485 261.717 321.352 261.076 321.348 259.48C321.343 257.883 322.468 255.939 323.858 255.137L333.591 249.379Z" fill="#FF0000"/>
<path d="M342.58 255.102C343.969 254.3 345.098 254.943 345.103 256.54C345.107 258.137 343.986 260.078 342.597 260.881L323.639 271.946C322.25 272.748 321.118 272.107 321.113 270.51C321.108 268.913 322.233 266.97 323.623 266.167L342.58 255.102Z" fill="#FF0000"/>
<path d="M369.83 239.241C371.219 238.439 372.348 239.082 372.353 240.678C372.357 242.275 371.236 244.217 369.847 245.019L350.889 256.084C349.5 256.886 348.368 256.245 348.363 254.649C348.358 253.052 349.483 251.108 350.873 250.306L369.83 239.241Z" fill="#FF0000"/>
<path d="M397.08 223.381C398.469 222.579 399.598 223.222 399.603 224.819C399.607 226.416 398.486 228.357 397.097 229.16L378.139 240.225C376.75 241.027 375.618 240.386 375.613 238.789C375.608 237.192 376.733 235.248 378.123 234.446L397.08 223.381Z" fill="#FF0000"/>
<path d="M424.331 207.52C425.72 206.718 426.849 207.361 426.853 208.957C426.858 210.554 425.736 212.496 424.347 213.298L405.389 224.363C404 225.165 402.868 224.524 402.863 222.928C402.858 221.331 403.983 219.387 405.373 218.585L424.331 207.52Z" fill="#FF0000"/>
<path d="M451.581 191.66C452.97 190.858 454.099 191.501 454.103 193.098C454.108 194.695 452.986 196.636 451.597 197.439L432.639 208.504C431.25 209.306 430.118 208.665 430.113 207.068C430.108 205.471 431.233 203.528 432.623 202.725L451.581 191.66Z" fill="#FF0000"/>
<g opacity="0.2">
<path d="M342.58 255.102C343.969 254.3 345.098 254.943 345.103 256.54C345.107 258.137 343.986 260.078 342.597 260.881L323.639 271.946C322.25 272.748 321.118 272.107 321.113 270.51C321.108 268.913 322.233 266.97 323.623 266.167L342.58 255.102Z" fill="white"/>
<path d="M369.83 239.241C371.219 238.439 372.348 239.082 372.353 240.678C372.357 242.275 371.236 244.217 369.847 245.019L350.889 256.084C349.5 256.886 348.368 256.245 348.363 254.649C348.358 253.052 349.483 251.108 350.873 250.306L369.83 239.241Z" fill="white"/>
<path d="M397.08 223.381C398.469 222.579 399.598 223.222 399.603 224.819C399.607 226.416 398.486 228.357 397.097 229.16L378.139 240.225C376.75 241.027 375.618 240.386 375.613 238.789C375.608 237.192 376.733 235.248 378.123 234.446L397.08 223.381Z" fill="white"/>
<path d="M424.331 207.52C425.72 206.718 426.849 207.361 426.853 208.957C426.858 210.554 425.736 212.496 424.347 213.298L405.389 224.363C404 225.165 402.868 224.524 402.863 222.928C402.858 221.331 403.983 219.387 405.373 218.585L424.331 207.52Z" fill="white"/>
<path d="M451.581 191.66C452.97 190.858 454.099 191.501 454.103 193.098C454.108 194.695 452.986 196.636 451.597 197.439L432.639 208.504C431.25 209.306 430.118 208.665 430.113 207.068C430.108 205.471 431.233 203.528 432.623 202.725L451.581 191.66Z" fill="white"/>
</g>
<path d="M433.152 219.687L433.166 224.581L406.061 240.273L406.047 235.38L433.152 219.687Z" fill="#FF0000"/>
<path d="M434.068 244.878L434.077 247.872L406.129 264.182L406.121 261.189L434.068 244.878Z" fill="#FF0000"/>
<path d="M439.921 235.755L439.929 238.741L406.11 258.203L406.102 255.217L439.921 235.755Z" fill="#FF0000"/>
<path d="M421.907 240.104L421.916 243.09L406.095 252.224L406.086 249.238L421.907 240.104Z" fill="#FF0000"/>
<path d="M439.889 223.797L439.897 226.783L406.079 246.245L406.07 243.259L439.889 223.797Z" fill="#FF0000"/>
<g opacity="0.1">
<path d="M433.152 219.687L433.166 224.581L406.061 240.273L406.047 235.38L433.152 219.687Z" fill="white"/>
<path d="M434.068 244.878L434.077 247.872L406.129 264.182L406.121 261.189L434.068 244.878Z" fill="white"/>
<path d="M439.921 235.755L439.929 238.741L406.11 258.203L406.102 255.217L439.921 235.755Z" fill="white"/>
<path d="M421.907 240.104L421.916 243.09L406.095 252.224L406.086 249.238L421.907 240.104Z" fill="white"/>
<path d="M439.889 223.797L439.897 226.783L406.079 246.245L406.07 243.259L439.889 223.797Z" fill="white"/>
</g>
<path d="M438.486 280.057L438.494 283.159L407.055 301.418L407.047 298.316L438.486 280.057Z" fill="#FF0000"/>
<path d="M452.65 266.172L452.658 269.266L407.04 295.793L407.031 292.699L452.65 266.172Z" fill="#FF0000"/>
<g opacity="0.1">
<path d="M438.486 280.057L438.494 283.159L407.055 301.418L407.047 298.316L438.486 280.057Z" fill="white"/>
<path d="M452.65 266.172L452.658 269.266L407.04 295.793L407.031 292.699L452.65 266.172Z" fill="white"/>
</g>
<path d="M144.373 79.348L144.376 79.346C144.116 78.433 142.263 76.698 140.419 76.734C140.352 76.733 140.021 76.767 139.901 76.836L76.107 113.706C75.498 114.052 75.028 114.573 74.73 115.181C74.504 115.642 74.375 116.153 74.375 116.684V169.441C74.375 171.415 76.651 173.298 78.788 172.392C78.793 172.39 78.797 172.384 78.802 172.382C78.848 172.365 78.894 172.352 78.939 172.327L142.734 135.424C143.804 134.815 144.464 133.678 144.464 132.447V79.722C144.465 79.584 144.428 79.46 144.373 79.348Z" fill="#FF0000"/>
<path opacity="0.2" d="M74.375 116.684V169.441C74.375 171.415 76.651 173.298 78.788 172.392C78.793 172.39 78.797 172.384 78.802 172.382C78.26 172.578 77.659 172.188 77.659 171.582V118.825C77.659 118.138 77.87 117.485 78.238 116.933L74.731 115.181C74.504 115.642 74.375 116.152 74.375 116.684Z" fill="white"/>
<path opacity="0.4" d="M140.419 76.734C140.352 76.733 140.021 76.767 139.901 76.836L76.1075 113.706C75.4985 114.052 75.0285 114.573 74.7305 115.181L78.2375 116.933C78.5295 116.494 78.9165 116.117 79.3915 115.847L143.185 78.977C143.636 78.72 144.168 78.927 144.374 79.348L144.377 79.346C144.116 78.433 142.263 76.698 140.419 76.734Z" fill="white"/>
<path opacity="0.3" d="M144.373 79.348L144.376 79.346C144.116 78.433 142.263 76.698 140.419 76.734C140.352 76.733 140.021 76.767 139.901 76.836L76.107 113.705C75.498 114.051 75.028 114.572 74.73 115.18C74.504 115.641 74.375 116.152 74.375 116.683V169.44C74.375 171.414 76.651 173.297 78.788 172.391C78.794 172.389 78.797 172.383 78.803 172.381C78.849 172.364 78.895 172.351 78.94 172.326L142.735 135.423C143.805 134.814 144.465 133.677 144.465 132.446V79.722C144.465 79.584 144.428 79.46 144.373 79.348Z" fill="white"/>
<g opacity="0.6">
<path d="M102.023 116.724L123.753 118.593L102.104 145.505L102.023 116.724Z" fill="white"/>
</g>
<path d="M104.409 229.211C104.595 229.104 104.75 229.018 104.904 228.936C105.069 228.848 105.234 228.765 105.398 228.685L105.418 236.25C98.1635 240.392 90.9095 244.529 83.6585 248.669C75.4645 253.343 67.2745 258.015 59.0805 262.689L59.0625 256.321C59.1045 256.279 59.1465 256.236 59.1885 256.195C59.3545 256.03 59.5215 255.869 59.6905 255.713C60.8105 254.674 61.9915 253.812 63.1825 253.112C63.2285 253.085 63.2735 253.059 63.3195 253.032C63.3895 252.991 63.4595 252.951 63.5305 252.912C64.3505 252.452 65.1735 252.067 65.9825 251.754C66.2125 251.665 66.4415 251.581 66.6695 251.503C69.7395 250.456 72.6205 250.307 75.5445 249.921C75.8315 249.883 76.1195 249.843 76.4085 249.8C78.7545 249.446 81.1815 248.86 83.6545 247.541C83.8395 247.442 84.0255 247.339 84.2105 247.232C84.3645 247.143 84.5175 247.052 84.6695 246.958C88.8325 244.389 92.6595 239.864 96.5235 235.847C96.7185 235.644 96.9145 235.442 97.1125 235.241C97.2065 235.146 97.3005 235.05 97.3945 234.955C97.5715 234.777 97.7495 234.6 97.9285 234.423C98.0165 234.336 98.1055 234.249 98.1945 234.163C100.132 232.278 102.165 230.551 104.159 229.357C104.243 229.307 104.326 229.258 104.409 229.211Z" fill="#FF0000"/>
<path opacity="0.4" d="M104.409 229.211C104.595 229.104 104.75 229.018 104.904 228.936C105.069 228.848 105.234 228.765 105.398 228.685L105.418 236.25C98.1635 240.392 90.9095 244.529 83.6585 248.669C75.4645 253.343 67.2745 258.015 59.0805 262.689L59.0625 256.321C59.1045 256.279 59.1465 256.236 59.1885 256.195C59.3545 256.03 59.5215 255.869 59.6905 255.713C60.8105 254.674 61.9915 253.812 63.1825 253.112C63.2285 253.085 63.2735 253.059 63.3195 253.032C63.3895 252.991 63.4595 252.951 63.5305 252.912C64.3505 252.452 65.1735 252.067 65.9825 251.754C66.2125 251.665 66.4415 251.581 66.6695 251.503C69.7395 250.456 72.6205 250.307 75.5445 249.921C75.8315 249.883 76.1195 249.843 76.4085 249.8C78.7545 249.446 81.1815 248.86 83.6545 247.541C83.8395 247.442 84.0255 247.339 84.2105 247.232C84.3645 247.143 84.5175 247.052 84.6695 246.958C88.8325 244.389 92.6595 239.864 96.5235 235.847C96.7185 235.644 96.9145 235.442 97.1125 235.241C97.2065 235.146 97.3005 235.05 97.3945 234.955C97.5715 234.777 97.7495 234.6 97.9285 234.423C98.0165 234.336 98.1055 234.249 98.1945 234.163C100.132 232.278 102.165 230.551 104.159 229.357C104.243 229.307 104.326 229.258 104.409 229.211Z" fill="black"/>
<path d="M78.5789 227.164C81.2709 225.609 83.4609 226.857 83.4699 229.956C83.4789 233.05 81.3029 236.818 78.6109 238.373C75.9139 239.93 73.7239 238.682 73.7149 235.588C73.7069 232.49 75.8819 228.721 78.5789 227.164Z" fill="white"/>
<path d="M83.6523 247.54C81.1793 248.859 78.7513 249.445 76.4062 249.799C78.7513 249.445 81.1803 248.859 83.6523 247.54Z" fill="#5D3464"/>
<path d="M63.7501 243.453C64.1201 243.239 64.4901 243.068 64.8561 242.948C66.0291 242.57 67.0641 242.744 68.0721 242.918C70.1561 243.28 72.2361 243.639 74.3161 244.003C75.3311 244.18 76.4931 243.89 77.6551 243.219C78.7671 242.577 79.8801 241.586 80.8641 240.32C82.0401 238.806 83.2211 237.376 84.4801 236.649C84.5251 236.623 84.5711 236.598 84.6161 236.573C85.7251 235.979 86.6841 236.048 87.6171 236.241C88.6291 236.452 89.8011 236.166 90.9751 235.488C92.1881 234.787 93.4031 233.667 94.4421 232.243C95.6291 230.621 96.8251 228.988 97.9231 227.407C98.8151 226.125 99.7481 224.799 100.839 223.922C101.093 223.719 101.345 223.548 101.594 223.404C102.895 222.653 104.134 222.642 105.379 222.675L105.396 228.683C105.232 228.762 105.068 228.846 104.903 228.934C104.749 229.016 104.594 229.102 104.439 229.191C104.325 229.257 104.242 229.306 104.159 229.355C102.165 230.549 100.132 232.276 98.1941 234.161C98.1051 234.247 98.0161 234.334 97.9281 234.421C97.7491 234.597 97.5711 234.774 97.3941 234.953C97.3001 235.048 97.2061 235.143 97.1121 235.239C96.9141 235.44 96.7181 235.642 96.5231 235.845C92.6591 239.862 88.8331 244.388 84.6691 246.956C84.5171 247.05 84.3641 247.141 84.2121 247.229C84.0241 247.337 83.8391 247.44 83.6541 247.539C81.1811 248.858 78.7531 249.444 76.4081 249.798C76.1191 249.842 75.8311 249.882 75.5441 249.919C72.6201 250.305 69.7391 250.454 66.6691 251.501C66.4421 251.579 66.2121 251.663 65.9821 251.752C65.1731 252.065 64.3511 252.45 63.5301 252.91C63.4601 252.949 63.3891 252.989 63.3191 253.03C63.2731 253.056 63.2281 253.083 63.1821 253.11C61.9911 253.81 60.8101 254.672 59.6901 255.711C59.5211 255.868 59.3541 256.028 59.1881 256.193C59.1461 256.235 59.1041 256.277 59.0621 256.319L59.0391 248.204C59.4581 247.612 59.8871 247.04 60.3381 246.502C61.3841 245.249 62.5691 244.135 63.7501 243.453Z" fill="#FF0000"/>
<g opacity="0.2">
<path d="M63.7501 243.453C64.1201 243.239 64.4901 243.068 64.8561 242.948C66.0291 242.57 67.0641 242.744 68.0721 242.918C70.1561 243.28 72.2361 243.639 74.3161 244.003C75.3311 244.18 76.4931 243.89 77.6551 243.219C78.7671 242.577 79.8801 241.586 80.8641 240.32C82.0401 238.806 83.2211 237.376 84.4801 236.649C84.5251 236.623 84.5711 236.598 84.6161 236.573C85.7251 235.979 86.6841 236.048 87.6171 236.241C88.6291 236.452 89.8011 236.166 90.9751 235.488C92.1881 234.787 93.4031 233.667 94.4421 232.243C95.6291 230.621 96.8251 228.988 97.9231 227.407C98.8151 226.125 99.7481 224.799 100.839 223.922C101.093 223.719 101.345 223.548 101.594 223.404C102.895 222.653 104.134 222.642 105.379 222.675L105.396 228.683C105.232 228.762 105.068 228.846 104.903 228.934C104.749 229.016 104.594 229.102 104.439 229.191C104.325 229.257 104.242 229.306 104.159 229.355C102.165 230.549 100.132 232.276 98.1941 234.161C98.1051 234.247 98.0161 234.334 97.9281 234.421C97.7491 234.597 97.5711 234.774 97.3941 234.953C97.3001 235.048 97.2061 235.143 97.1121 235.239C96.9141 235.44 96.7181 235.642 96.5231 235.845C92.6591 239.862 88.8331 244.388 84.6691 246.956C84.5171 247.05 84.3641 247.141 84.2121 247.229C84.0241 247.337 83.8391 247.44 83.6541 247.539C81.1811 248.858 78.7531 249.444 76.4081 249.798C76.1191 249.842 75.8311 249.882 75.5441 249.919C72.6201 250.305 69.7391 250.454 66.6691 251.501C66.4421 251.579 66.2121 251.663 65.9821 251.752C65.1731 252.065 64.3511 252.45 63.5301 252.91C63.4601 252.949 63.3891 252.989 63.3191 253.03C63.2731 253.056 63.2281 253.083 63.1821 253.11C61.9911 253.81 60.8101 254.672 59.6901 255.711C59.5211 255.868 59.3541 256.028 59.1881 256.193C59.1461 256.235 59.1041 256.277 59.0621 256.319L59.0391 248.204C59.4581 247.612 59.8871 247.04 60.3381 246.502C61.3841 245.249 62.5691 244.135 63.7501 243.453Z" fill="black"/>
</g>
<path d="M55.0156 232.383L109.296 201.044L109.419 244.374L55.1386 275.713L55.0156 232.383ZM105.379 222.677L105.337 207.906L58.9996 234.659L59.0966 268.857L105.434 242.105L105.417 236.251L105.396 228.686L105.379 222.677Z" fill="#FF0000"/>
<g opacity="0.6">
<path d="M55.0156 232.383L109.296 201.044L109.419 244.374L55.1386 275.713L55.0156 232.383ZM105.379 222.677L105.337 207.906L58.9996 234.659L59.0966 268.857L105.434 242.105L105.417 236.251L105.396 228.686L105.379 222.677Z" fill="white"/>
</g>
<path d="M59.0781 262.689C67.2721 258.015 75.4621 253.343 83.6561 248.669C90.9061 244.529 98.1611 240.392 105.416 236.25L105.433 242.104L59.0961 268.856L59.0781 262.689Z" fill="#455A64"/>
<path d="M59 234.659L105.336 207.907L105.378 222.678C104.133 222.645 102.895 222.655 101.593 223.407C101.344 223.551 101.093 223.722 100.838 223.925C99.747 224.802 98.815 226.128 97.922 227.41C96.824 228.991 95.628 230.623 94.441 232.246C93.402 233.67 92.187 234.79 90.974 235.491C89.8 236.169 88.628 236.454 87.616 236.244C86.684 236.051 85.725 235.982 84.615 236.576C84.57 236.6 84.524 236.625 84.479 236.652C83.22 237.379 82.039 238.809 80.863 240.323C79.879 241.589 78.766 242.58 77.654 243.222C76.492 243.893 75.33 244.183 74.315 244.006C72.235 243.642 70.155 243.283 68.071 242.921C67.063 242.747 66.027 242.572 64.855 242.951C64.49 243.071 64.119 243.243 63.749 243.456C62.568 244.138 61.383 245.252 60.336 246.507C59.885 247.045 59.457 247.617 59.037 248.209L59 234.659ZM78.61 238.373C81.303 236.818 83.478 233.05 83.469 229.956C83.46 226.857 81.27 225.609 78.578 227.164C75.881 228.721 73.705 232.489 73.714 235.588C73.723 238.683 75.913 239.93 78.61 238.373Z" fill="#FF0000"/>
<path d="M330.215 149.966L390.416 115.209L390.591 177.063L330.39 211.82L330.215 149.966ZM384.897 173.818L384.759 125.009L335.91 153.212L336.048 202.021L384.897 173.818Z" fill="#FF0000"/>
<path opacity="0.6" d="M330.215 149.966L390.416 115.209L390.591 177.063L330.39 211.82L330.215 149.966ZM384.897 173.818L384.759 125.009L335.91 153.212L336.048 202.021L384.897 173.818Z" fill="white"/>
<path d="M360.749 144.323L374.911 145.538L360.158 163.946L345.996 162.732L360.749 144.323Z" fill="#FAFAFA"/>
<path d="M374.909 145.538L374.917 164.235L360.158 182.647L360.156 163.946L374.909 145.538Z" fill="#EBEBEB"/>
<path d="M345.996 162.732L360.158 163.946L360.16 182.647L345.998 181.432L345.996 162.732Z" fill="#E0E0E0"/>
<path d="M335.91 153.212L384.759 125.009L384.897 173.818L336.048 202.021L335.91 153.212ZM374.92 164.235L374.912 145.538L360.75 144.323L345.997 162.731L345.999 181.432L360.161 182.647L374.92 164.235Z" fill="#FF0000"/>
<g opacity="0.2">
<path d="M335.91 153.212L384.759 125.009L384.897 173.818L336.048 202.021L335.91 153.212ZM374.92 164.235L374.912 145.538L360.75 144.323L345.997 162.731L345.999 181.432L360.161 182.647L374.92 164.235Z" fill="white"/>
</g>
<path d="M385.992 90.966L413.642 75.002L413.76 116.725L386.11 132.689L385.992 90.966ZM403.807 109.013L403.827 108.853C404.01 107.351 404.588 105.721 405.491 104.243C407.14 101.545 408.172 98.444 408.164 95.66C408.149 90.408 404.439 88.279 399.868 90.899C395.285 93.545 391.553 100.003 391.568 105.242C391.576 108.007 392.605 109.899 394.243 110.699C395.147 111.143 395.766 112.058 395.957 113.349L395.987 113.528C396.072 114.11 396.302 114.575 396.653 114.875L396.656 116.011L397.13 115.737L397.131 116.124L396.657 116.397L396.66 117.533L397.134 117.26L397.135 117.647L396.661 117.92L396.664 119.056L397.138 118.783L397.14 119.504L397.178 119.764C397.318 120.845 398.185 121.21 399.203 120.623L399.103 120.681L399.116 120.76C399.159 121.075 399.413 121.187 399.712 121.014L400.136 120.769C400.435 120.596 400.688 120.192 400.728 119.829L400.74 119.736L400.64 119.794C401.658 119.206 402.52 117.843 402.654 116.604L402.691 116.301L402.689 115.58L403.163 115.307L403.16 114.171L402.686 114.444L402.685 114.057L403.159 113.784L403.156 112.648L402.682 112.921L402.681 112.534L403.155 112.261L403.152 111.125C403.499 110.42 403.726 109.691 403.807 109.013ZM404.447 88.179C404.389 88.332 404.423 88.47 404.531 88.48L404.643 88.453C404.722 88.407 404.797 88.317 404.838 88.211L406.573 83.723C406.635 83.568 406.597 83.432 406.493 83.42C406.457 83.417 406.418 83.428 406.38 83.45C406.302 83.495 406.227 83.584 406.186 83.688L404.447 88.179ZM393.164 91.116C393.06 91.248 393.023 91.427 393.086 91.51L394.841 93.983C394.883 94.04 394.958 94.045 395.037 93.999L395.149 93.896C395.257 93.762 395.29 93.585 395.231 93.499L393.472 91.028C393.43 90.972 393.355 90.97 393.277 91.015C393.238 91.038 393.2 91.072 393.164 91.116ZM406.569 109.944C406.673 109.812 406.71 109.633 406.647 109.545L404.892 107.077C404.85 107.018 404.774 107.015 404.696 107.06C404.658 107.082 404.619 107.115 404.584 107.159C404.476 107.293 404.443 107.47 404.502 107.56L406.261 110.026C406.303 110.083 406.378 110.088 406.457 110.042L406.569 109.944ZM395.286 112.881C395.344 112.723 395.31 112.585 395.202 112.576C395.166 112.573 395.128 112.584 395.09 112.606C395.012 112.651 394.937 112.741 394.895 112.849L393.16 117.333C393.098 117.493 393.136 117.629 393.24 117.641L393.352 117.61C393.431 117.564 393.506 117.473 393.547 117.368L395.286 112.881ZM391.672 111.012C391.78 110.878 391.817 110.699 391.754 110.611C391.712 110.553 391.638 110.551 391.562 110.595C391.523 110.618 391.483 110.652 391.446 110.698L388.427 114.45C388.323 114.582 388.286 114.761 388.349 114.849C388.391 114.906 388.466 114.911 388.541 114.868L388.653 114.765L391.672 111.012ZM411.428 101.524C411.49 101.364 411.456 101.225 411.348 101.216L408.317 100.957C408.28 100.954 408.24 100.965 408.201 100.988C408.124 101.032 408.05 101.119 408.01 101.225C407.948 101.385 407.986 101.521 408.094 101.53L411.125 101.789L411.237 101.762C411.312 101.72 411.386 101.629 411.428 101.524ZM408.061 90.043C407.953 90.177 407.916 90.356 407.979 90.444C408.021 90.501 408.096 90.506 408.175 90.46L408.287 90.362L411.306 86.605C411.414 86.471 411.447 86.294 411.384 86.211C411.342 86.152 411.266 86.149 411.19 86.193C411.153 86.215 411.115 86.247 411.081 86.291L408.061 90.043ZM388.305 99.536C388.243 99.691 388.281 99.827 388.385 99.839L391.416 100.103L391.528 100.072C391.607 100.026 391.682 99.936 391.723 99.83C391.785 99.67 391.747 99.534 391.639 99.525L388.608 99.266C388.574 99.262 388.536 99.273 388.499 99.294C388.423 99.338 388.347 99.428 388.305 99.536ZM399.6 85.602L399.611 89.618C399.611 89.761 399.711 89.818 399.836 89.746C399.961 89.674 400.06 89.502 400.06 89.359L400.049 85.343C400.049 85.2 399.949 85.143 399.824 85.215C399.699 85.286 399.599 85.459 399.6 85.602ZM412.969 93.221C413.094 93.149 413.193 92.977 413.193 92.834C413.193 92.691 413.093 92.634 412.968 92.706L409.473 94.724C409.352 94.794 409.249 94.968 409.249 95.111C409.249 95.254 409.354 95.309 409.474 95.239L412.969 93.221ZM386.54 108.221C386.54 108.364 386.64 108.421 386.765 108.349L390.26 106.331C390.38 106.261 390.484 106.087 390.484 105.944C390.483 105.801 390.379 105.746 390.259 105.816L386.764 107.834C386.639 107.906 386.54 108.078 386.54 108.221Z" fill="#FF0000"/>
<path d="M400.74 119.737L400.728 119.83C400.687 120.193 400.435 120.597 400.135 120.77L399.711 121.015C399.412 121.188 399.158 121.076 399.115 120.761L399.102 120.682L399.202 120.624L400.64 119.794L400.74 119.737Z" fill="#37474F"/>
<path d="M402.693 116.3L402.656 116.603C402.522 117.842 401.66 119.206 400.642 119.793L399.204 120.623C398.186 121.211 397.319 120.846 397.179 119.765L397.141 119.505L402.693 116.3Z" fill="#455A64"/>
<path d="M397.134 117.648L397.133 117.261L402.684 114.056L402.686 114.443L397.134 117.648Z" fill="#37474F"/>
<path d="M403.155 112.646L403.158 113.783L402.684 114.056L397.133 117.261L396.659 117.535L396.656 116.398L397.13 116.125L402.681 112.92L403.155 112.646Z" fill="#455A64"/>
<path d="M402.555 99.481C403.02 99.212 403.4 99.429 403.401 99.959L403.413 104.094C403.414 104.557 403.258 105.088 402.972 105.583L402.297 106.752C402.073 107.135 401.954 107.543 401.955 107.906L401.966 111.807L401.629 112.001L401.618 108.1C401.617 107.637 401.773 107.106 402.055 106.619L402.734 105.443C402.954 105.063 403.077 104.652 403.076 104.289L403.064 100.154C403.063 99.839 402.834 99.708 402.555 99.869C402.277 100.03 402.053 100.422 402.054 100.737L402.065 104.504C402.067 105.039 401.69 105.692 401.228 105.958C400.763 106.227 400.383 106.011 400.382 105.476L400.371 101.709C400.37 101.394 400.145 101.261 399.866 101.421C399.588 101.582 399.364 101.974 399.365 102.289L399.376 106.056C399.377 106.591 399.001 107.244 398.535 107.512C398.074 107.778 397.694 107.562 397.693 107.027L397.682 103.26C397.681 102.945 397.456 102.812 397.178 102.973C396.9 103.134 396.672 103.528 396.673 103.843L396.685 107.978C396.686 108.341 396.812 108.608 397.033 108.734L397.717 109.124C398.001 109.285 398.16 109.634 398.161 110.097L398.172 113.998L397.835 114.192L397.824 110.291C397.823 109.928 397.702 109.659 397.476 109.535L396.796 109.148C396.508 108.984 396.353 108.634 396.352 108.17L396.34 104.035C396.338 103.505 396.711 102.855 397.177 102.586C397.638 102.32 398.018 102.536 398.019 103.066L398.03 106.833C398.031 107.153 398.256 107.286 398.534 107.125C398.813 106.964 399.04 106.57 399.039 106.25L399.028 102.483C399.027 101.953 399.399 101.303 399.865 101.034C400.33 100.765 400.706 100.984 400.707 101.514L400.718 105.281C400.719 105.601 400.948 105.732 401.227 105.571C401.505 105.41 401.729 105.018 401.728 104.698L401.717 100.931C401.716 100.4 402.093 99.748 402.555 99.481Z" fill="white"/>
<path d="M417.323 68.625L382.285 88.854L382.427 139.066L417.465 118.837L417.323 68.625ZM386.109 132.689L385.991 90.967L413.641 75.003L413.759 116.726L386.109 132.689Z" fill="#FF0000"/>
<g opacity="0.6">
<path d="M417.323 68.625L382.285 88.854L382.427 139.066L417.465 118.837L417.323 68.625ZM386.109 132.689L385.991 90.967L413.641 75.003L413.759 116.726L386.109 132.689Z" fill="white"/>
</g>
<path d="M397.139 119.506L397.137 118.785L402.689 115.579L402.691 116.3L397.139 119.506Z" fill="#37474F"/>
<path d="M403.159 114.17L403.162 115.306L402.689 115.579L397.137 118.785L396.663 119.058L396.66 117.922L397.134 117.648L402.686 114.443L403.159 114.17Z" fill="#455A64"/>
<path d="M397.129 115.738L402.681 112.533L402.682 112.92L397.131 116.125L397.129 115.738Z" fill="#37474F"/>
<path d="M399.843 90.912C404.437 88.279 408.147 90.408 408.162 95.66C408.17 98.444 407.138 101.545 405.489 104.243C404.586 105.721 404.008 107.351 403.825 108.853L403.805 109.013C403.724 109.691 403.497 110.42 403.149 111.123L401.965 111.807L401.954 107.906C401.953 107.543 402.072 107.135 402.296 106.752L402.971 105.583C403.257 105.088 403.413 104.558 403.412 104.094L403.4 99.959C403.399 99.429 403.019 99.213 402.554 99.481C402.093 99.747 401.716 100.4 401.717 100.93L401.728 104.697C401.729 105.017 401.505 105.409 401.227 105.57C400.949 105.731 400.719 105.6 400.718 105.28L400.707 101.513C400.706 100.983 400.33 100.764 399.865 101.033C399.4 101.302 399.027 101.952 399.028 102.482L399.039 106.249C399.04 106.569 398.812 106.964 398.534 107.124C398.256 107.285 398.031 107.152 398.03 106.832L398.019 103.065C398.017 102.535 397.638 102.319 397.177 102.585C396.712 102.854 396.339 103.504 396.34 104.034L396.352 108.169C396.353 108.632 396.508 108.983 396.796 109.147L397.476 109.534C397.701 109.658 397.822 109.927 397.824 110.29L397.835 114.191L396.651 114.875C396.301 114.575 396.07 114.11 395.985 113.528L395.955 113.349C395.764 112.058 395.145 111.143 394.241 110.699C392.603 109.899 391.574 108.006 391.566 105.242C391.55 100.003 395.282 93.545 399.843 90.912Z" fill="#FF0000"/>
<path d="M402.054 106.619C401.772 107.107 401.616 107.637 401.617 108.1L401.628 112.001L398.171 113.997L398.16 110.096C398.159 109.633 398 109.285 397.716 109.123L397.032 108.733C396.811 108.607 396.685 108.34 396.684 107.977L396.672 103.842C396.671 103.527 396.899 103.132 397.177 102.972C397.455 102.811 397.68 102.944 397.681 103.259L397.692 107.026C397.694 107.561 398.073 107.777 398.534 107.511C398.999 107.242 399.376 106.589 399.375 106.055L399.364 102.288C399.363 101.973 399.587 101.581 399.865 101.42C400.143 101.259 400.369 101.392 400.369 101.707L400.38 105.474C400.381 106.009 400.761 106.225 401.226 105.956C401.687 105.69 402.064 105.037 402.063 104.502L402.052 100.735C402.051 100.42 402.275 100.028 402.553 99.867C402.831 99.706 403.061 99.837 403.062 100.152L403.074 104.287C403.075 104.65 402.951 105.061 402.732 105.441L402.054 106.619Z" fill="#FF0000"/>
<g opacity="0.4">
<path d="M399.843 90.912C404.437 88.279 408.147 90.408 408.162 95.66C408.17 98.444 407.138 101.545 405.489 104.243C404.586 105.721 404.008 107.351 403.825 108.853L403.805 109.013C403.724 109.691 403.497 110.42 403.149 111.123L401.965 111.807L401.954 107.906C401.953 107.543 402.072 107.135 402.296 106.752L402.971 105.583C403.257 105.088 403.413 104.558 403.412 104.094L403.4 99.959C403.399 99.429 403.019 99.213 402.554 99.481C402.093 99.747 401.716 100.4 401.717 100.93L401.728 104.697C401.729 105.017 401.505 105.409 401.227 105.57C400.949 105.731 400.719 105.6 400.718 105.28L400.707 101.513C400.706 100.983 400.33 100.764 399.865 101.033C399.4 101.302 399.027 101.952 399.028 102.482L399.039 106.249C399.04 106.569 398.812 106.964 398.534 107.124C398.256 107.285 398.031 107.152 398.03 106.832L398.019 103.065C398.017 102.535 397.638 102.319 397.177 102.585C396.712 102.854 396.339 103.504 396.34 104.034L396.352 108.169C396.353 108.632 396.508 108.983 396.796 109.147L397.476 109.534C397.701 109.658 397.822 109.927 397.824 110.29L397.835 114.191L396.651 114.875C396.301 114.575 396.07 114.11 395.985 113.528L395.955 113.349C395.764 112.058 395.145 111.143 394.241 110.699C392.603 109.899 391.574 108.006 391.566 105.242C391.55 100.003 395.282 93.545 399.843 90.912Z" fill="white"/>
<path d="M402.054 106.619C401.772 107.107 401.616 107.637 401.617 108.1L401.628 112.001L398.171 113.997L398.16 110.096C398.159 109.633 398 109.285 397.716 109.123L397.032 108.733C396.811 108.607 396.685 108.34 396.684 107.977L396.672 103.842C396.671 103.527 396.899 103.132 397.177 102.972C397.455 102.811 397.68 102.944 397.681 103.259L397.692 107.026C397.694 107.561 398.073 107.777 398.534 107.511C398.999 107.242 399.376 106.589 399.375 106.055L399.364 102.288C399.363 101.973 399.587 101.581 399.865 101.42C400.143 101.259 400.369 101.392 400.369 101.707L400.38 105.474C400.381 106.009 400.761 106.225 401.226 105.956C401.687 105.69 402.064 105.037 402.063 104.502L402.052 100.735C402.051 100.42 402.275 100.028 402.553 99.867C402.831 99.706 403.061 99.837 403.062 100.152L403.074 104.287C403.075 104.65 402.951 105.061 402.732 105.441L402.054 106.619Z" fill="white"/>
</g>
<path d="M403.15 111.123L403.154 112.259L402.68 112.533L397.128 115.738L396.655 116.012L396.652 114.875L403.15 111.123Z" fill="#455A64"/>
<path d="M388.497 99.293C388.534 99.271 388.572 99.261 388.606 99.265L391.637 99.524C391.745 99.533 391.783 99.669 391.721 99.829C391.68 99.934 391.605 100.025 391.526 100.071L391.414 100.102L388.383 99.838C388.279 99.826 388.241 99.69 388.303 99.535C388.345 99.428 388.421 99.338 388.497 99.293Z" fill="white"/>
<path d="M404.696 107.059C404.774 107.014 404.85 107.017 404.892 107.076L406.647 109.544C406.71 109.632 406.673 109.811 406.569 109.943L406.457 110.041C406.378 110.087 406.303 110.082 406.261 110.025L404.502 107.559C404.443 107.468 404.476 107.292 404.584 107.158C404.619 107.114 404.657 107.081 404.696 107.059Z" fill="white"/>
<path d="M412.969 92.705C413.094 92.633 413.194 92.69 413.194 92.833C413.194 92.976 413.095 93.149 412.97 93.22L409.475 95.238C409.355 95.307 409.25 95.253 409.25 95.11C409.25 94.967 409.353 94.792 409.474 94.723L412.969 92.705Z" fill="white"/>
<path d="M411.191 86.193C411.268 86.149 411.343 86.152 411.385 86.211C411.448 86.294 411.415 86.471 411.307 86.605L408.288 90.362L408.176 90.46C408.097 90.506 408.022 90.501 407.98 90.444C407.917 90.356 407.954 90.177 408.062 90.043L411.081 86.291C411.116 86.247 411.154 86.215 411.191 86.193Z" fill="white"/>
<path d="M391.559 110.595C391.636 110.551 391.71 110.553 391.751 110.611C391.814 110.699 391.777 110.878 391.669 111.012L388.65 114.764L388.538 114.867C388.463 114.91 388.388 114.906 388.347 114.849C388.284 114.761 388.321 114.582 388.425 114.45L391.444 110.698C391.48 110.652 391.52 110.618 391.559 110.595Z" fill="white"/>
<path d="M406.379 83.45C406.417 83.428 406.456 83.416 406.492 83.42C406.596 83.432 406.634 83.568 406.572 83.723L404.837 88.211C404.796 88.316 404.721 88.407 404.642 88.453L404.53 88.48C404.422 88.471 404.388 88.332 404.446 88.179L406.186 83.688C406.226 83.584 406.302 83.495 406.379 83.45Z" fill="white"/>
<path d="M390.258 105.816C390.378 105.746 390.483 105.801 390.483 105.944C390.483 106.087 390.38 106.262 390.259 106.331L386.764 108.349C386.639 108.421 386.539 108.364 386.539 108.221C386.539 108.078 386.638 107.906 386.763 107.834L390.258 105.816Z" fill="white"/>
<path d="M399.822 85.215C399.947 85.143 400.047 85.2 400.047 85.343L400.058 89.359C400.058 89.502 399.959 89.674 399.834 89.746C399.709 89.818 399.609 89.761 399.609 89.618L399.598 85.602C399.598 85.459 399.698 85.286 399.822 85.215Z" fill="white"/>
<path d="M393.277 91.016C393.354 90.971 393.43 90.973 393.472 91.029L395.231 93.5C395.289 93.586 395.257 93.763 395.149 93.897L395.037 94C394.958 94.046 394.883 94.041 394.841 93.984L393.086 91.511C393.023 91.428 393.06 91.248 393.164 91.117C393.2 91.072 393.238 91.038 393.277 91.016Z" fill="white"/>
<path d="M408.201 100.988C408.24 100.965 408.28 100.954 408.317 100.957L411.348 101.216C411.456 101.225 411.49 101.364 411.428 101.524C411.387 101.629 411.312 101.72 411.237 101.763L411.125 101.79L408.094 101.531C407.986 101.522 407.948 101.386 408.01 101.226C408.051 101.12 408.125 101.032 408.201 100.988Z" fill="white"/>
<path d="M395.09 112.606C395.128 112.584 395.167 112.573 395.202 112.576C395.31 112.585 395.344 112.724 395.286 112.881L393.546 117.367C393.505 117.472 393.43 117.563 393.351 117.609L393.239 117.64C393.135 117.628 393.097 117.492 393.159 117.332L394.894 112.848C394.937 112.741 395.013 112.651 395.09 112.606Z" fill="white"/>
<path d="M288.617 151.273L295.536 148.932L289.352 160.232L281.207 170.152L288.617 151.273Z" fill="#455A64"/>
<path d="M311.096 122.165L302.828 151.879L289.608 167.161L286.119 177.09L271.281 185.657L281.207 170.152L289.352 160.232L295.536 148.932L311.096 122.165Z" fill="#37474F"/>
<path d="M336.703 95.879L336.82 137.184L330.892 130.517L327.116 134.744L311.095 122.165L295.535 148.932L288.616 151.273L281.206 170.152L271.28 185.657L286.118 177.09L302.871 167.417L311.203 162.607L336.85 147.799L271.28 185.657L271.133 133.736L336.703 95.879Z" fill="#FF0000"/>
<path opacity="0.2" d="M336.703 95.879L336.82 137.184L330.892 130.517L327.116 134.744L311.095 122.165L295.535 148.932L288.616 151.273L281.206 170.152L271.28 185.657L286.118 177.09L302.871 167.417L311.203 162.607L336.85 147.799L271.28 185.657L271.133 133.736L336.703 95.879Z" fill="black"/>
<path d="M330.892 130.517L336.82 137.184L336.85 147.799L311.203 162.607L313.62 157.853L320.353 150.608L330.892 130.517Z" fill="#455A64"/>
<path d="M311.094 122.165L327.115 134.744L312.538 151.063L302.87 167.417L286.117 177.09L289.606 167.161L302.826 151.879L311.094 122.165Z" fill="#455A64"/>
<path d="M265.438 130.491L342.359 86.08L342.544 151.044L265.622 195.455L265.438 130.491ZM336.82 137.184L336.703 95.88L271.133 133.737L271.28 185.657L336.85 147.8L336.82 137.184Z" fill="#FF0000"/>
<path opacity="0.6" d="M265.438 130.491L342.359 86.08L342.544 151.044L265.622 195.455L265.438 130.491ZM336.82 137.184L336.703 95.88L271.133 133.737L271.28 185.657L336.85 147.8L336.82 137.184Z" fill="white"/>
<path d="M330.892 130.517L320.353 150.608L313.62 157.853L311.203 162.607L302.871 167.417L312.539 151.063L327.116 134.744L330.892 130.517Z" fill="#37474F"/>
<path d="M143.368 159.852L143.455 190.865L104.291 213.477L104.203 182.464L143.368 159.852Z" fill="#FF0000"/>
<g opacity="0.1">
<path d="M143.368 159.852L143.455 190.865L104.291 213.477L104.203 182.464L143.368 159.852Z" fill="black"/>
</g>
<path d="M100.801 180.526L146.745 154L146.855 192.803L100.911 219.329L100.801 180.526ZM143.454 190.865L143.366 159.852L104.202 182.464L104.29 213.477L143.454 190.865Z" fill="#FF0000"/>
<g opacity="0.6">
<path d="M100.801 180.526L146.745 154L146.855 192.803L100.911 219.329L100.801 180.526ZM143.454 190.865L143.366 159.852L104.202 182.464L104.29 213.477L143.454 190.865Z" fill="white"/>
</g>
<path d="M136.667 168.766C137.369 168.361 137.939 168.686 137.941 169.496L137.992 187.509C137.994 188.315 137.428 189.296 136.726 189.701L130.03 193.567C132.937 189.61 134.84 184.666 134.828 180.312C134.816 175.959 132.888 173.225 129.965 172.635L136.667 168.766Z" fill="#37474F"/>
<path d="M123.804 178.023C127.956 175.626 131.334 177.551 131.348 182.322C131.362 187.093 128.006 192.906 123.853 195.304C119.697 197.704 116.319 195.779 116.305 191.007C116.291 186.236 119.647 180.423 123.804 178.023ZM121.495 186.975C122.78 186.233 123.821 184.429 123.817 182.953C123.813 181.472 122.765 180.879 121.48 181.621C120.191 182.365 119.15 184.164 119.154 185.645C119.158 187.122 120.207 187.719 121.495 186.975Z" fill="#263238"/>
<path d="M117.628 179.759C114.717 183.717 112.812 188.664 112.824 193.017C112.836 197.371 114.762 200.105 117.682 200.697L110.989 204.561C110.287 204.966 109.714 204.643 109.711 203.837L109.66 185.824C109.658 185.013 110.228 184.03 110.929 183.625L117.628 179.759Z" fill="#37474F"/>
<path d="M121.478 181.621C122.763 180.879 123.811 181.472 123.815 182.953C123.819 184.43 122.778 186.233 121.493 186.975C120.204 187.719 119.156 187.122 119.152 185.645C119.148 184.164 120.189 182.365 121.478 181.621Z" fill="white"/>
<path d="M129.966 172.635C132.889 173.225 134.816 175.959 134.829 180.312C134.841 184.666 132.938 189.61 130.031 193.567C128.275 195.958 126.152 197.988 123.864 199.309C121.575 200.631 119.447 201.055 117.682 200.697C114.761 200.105 112.836 197.371 112.824 193.017C112.812 188.664 114.717 183.717 117.628 179.759C119.384 177.371 121.506 175.344 123.793 174.023C126.078 172.704 128.203 172.279 129.966 172.635ZM123.853 195.304C128.005 192.907 131.361 187.094 131.348 182.322C131.334 177.551 127.957 175.626 123.804 178.023C119.648 180.423 116.292 186.235 116.305 191.007C116.318 195.779 119.696 197.704 123.853 195.304Z" fill="#455A64"/>
<path d="M323.383 65.874L372.767 37.362L372.911 88.101L323.527 116.613L323.383 65.874ZM368.239 85.44L368.126 45.401L328.054 68.536L328.167 108.575L368.239 85.44Z" fill="#FF0000"/>
<path opacity="0.6" d="M323.383 65.874L372.767 37.362L372.911 88.101L323.527 116.613L323.383 65.874ZM368.239 85.44L368.126 45.401L328.054 68.536L328.167 108.575L368.239 85.44Z" fill="white"/>
<path d="M368.127 45.401L328.055 68.536L328.169 108.575L368.24 85.44L368.127 45.401Z" fill="#FF0000"/>
<path d="M355.026 73.748C355.953 73.412 356.975 73.261 357.979 73.347C358.246 73.37 358.485 73.408 358.698 73.459C360.605 73.919 360.409 75.467 359.701 77.295C359.216 78.553 358.6 79.647 357.567 80.243C357.102 80.512 356.552 80.679 355.892 80.715C355.652 80.728 355.399 80.724 355.129 80.701C354.129 80.613 353.289 80.3 352.672 79.834C352.818 79.601 352.962 79.366 353.102 79.125C353.524 78.397 353.902 77.626 354.214 76.821C354.526 76.018 354.75 75.236 354.901 74.483C354.95 74.235 354.991 73.989 355.026 73.748Z" fill="white"/>
<path d="M351.633 78.415C351.803 78.963 352.16 79.45 352.669 79.832C352.818 79.601 352.962 79.366 353.102 79.125C352.963 79.365 352.818 79.601 352.669 79.832C352.363 80.316 352.026 80.788 351.661 81.242C351.298 81.695 350.922 82.109 350.538 82.487C350.384 82.635 350.229 82.782 350.073 82.925C350.23 82.782 350.384 82.635 350.537 82.483C350.279 81.789 349.934 81.289 349.531 81.032C350.333 80.305 351.052 79.401 351.633 78.415Z" fill="#E0E0E0"/>
<path d="M353.898 74.27C354.251 74.066 354.63 73.891 355.027 73.748C354.993 73.99 354.951 74.235 354.901 74.483C354.75 75.236 354.526 76.018 354.214 76.821C353.902 77.627 353.525 78.397 353.102 79.125C352.963 79.365 352.818 79.601 352.669 79.832C352.16 79.45 351.803 78.964 351.633 78.415C352.288 77.304 352.768 76.087 352.995 74.902C353.269 74.67 353.572 74.458 353.898 74.27Z" fill="#F0F0F0"/>
<path d="M358.685 66.965C361.007 65.883 361.464 66.975 361.468 68.609C361.473 70.244 361.023 71.861 358.699 73.459C358.486 73.408 358.247 73.37 357.98 73.347C356.976 73.261 355.954 73.412 355.03 73.747C355.102 73.245 355.139 72.749 355.138 72.264C355.137 71.78 355.097 71.33 355.023 70.914C355.946 70.178 356.965 69.151 357.965 67.912C358.232 67.579 358.472 67.263 358.685 66.965Z" fill="#F0F0F0"/>
<path d="M350.538 82.483C350.854 83.327 351.037 84.457 351.041 85.786C351.042 86.14 351.03 86.473 351.006 86.786C350.791 89.588 349.614 90.787 348.19 91.609C346.766 92.431 345.586 92.593 345.356 90.048C345.33 89.764 345.317 89.446 345.316 89.092C345.312 87.763 345.488 86.426 345.797 85.226C345.951 85.196 346.106 85.165 346.264 85.126C346.87 84.978 347.508 84.722 348.17 84.339C348.833 83.957 349.47 83.476 350.075 82.925C350.231 82.782 350.386 82.635 350.538 82.483Z" fill="white"/>
<path d="M355.019 70.917C355.097 71.33 355.137 71.78 355.138 72.264C355.139 72.749 355.102 73.245 355.03 73.747C354.993 73.99 354.951 74.235 354.901 74.483C354.951 74.235 354.992 73.989 355.027 73.748C354.63 73.891 354.251 74.066 353.898 74.27C353.572 74.458 353.269 74.67 352.996 74.902C353.092 74.398 353.143 73.899 353.142 73.416C353.141 72.934 353.087 72.495 352.988 72.104C353.264 72.02 353.569 71.881 353.897 71.692C354.248 71.489 354.625 71.229 355.019 70.917Z" fill="#E0E0E0"/>
<path d="M349.531 81.032C349.934 81.289 350.279 81.789 350.537 82.483C350.385 82.635 350.23 82.782 350.073 82.925C349.468 83.476 348.831 83.956 348.168 84.339C347.505 84.721 346.868 84.978 346.262 85.126C346.105 85.164 345.95 85.196 345.797 85.22C346.05 84.231 346.391 83.335 346.792 82.614C347.228 82.505 347.687 82.316 348.162 82.042C348.637 81.768 349.096 81.425 349.531 81.032Z" fill="#F0F0F0"/>
<path d="M341.27 81.691C341.309 81.89 341.352 82.086 341.403 82.276C341.557 82.852 341.786 83.374 342.101 83.814C342.416 84.257 342.797 84.591 343.222 84.829C343.362 84.908 343.508 84.976 343.657 85.035C343.042 86.216 342.207 87.496 341.211 88.737C340.942 89.071 340.689 89.368 340.45 89.631C339.792 90.357 339.243 90.824 338.778 91.092C337.745 91.688 337.125 91.307 336.634 90.613C335.918 89.607 335.715 88.289 337.612 85.633C337.824 85.336 338.062 85.023 338.328 84.692C339.328 83.45 340.347 82.423 341.27 81.691Z" fill="white"/>
<path d="M343.654 85.04C343.965 85.165 344.303 85.247 344.67 85.278C345.035 85.31 345.412 85.29 345.796 85.225C345.487 86.425 345.311 87.762 345.315 89.091C345.316 89.445 345.33 89.763 345.355 90.047C344.572 91.77 343.823 92.659 343.091 93.081C342.561 93.387 342.041 93.448 341.522 93.403C340.288 93.297 339.489 92.628 340.449 89.63C340.688 89.367 340.941 89.07 341.21 88.736C342.207 87.496 343.042 86.217 343.654 85.04Z" fill="#F0F0F0"/>
<path d="M344.68 82.429C345.265 82.742 345.987 82.814 346.791 82.613C346.391 83.334 346.049 84.23 345.796 85.219C345.411 85.29 345.033 85.31 344.668 85.278C344.301 85.247 343.963 85.165 343.652 85.04C343.505 84.977 343.36 84.908 343.219 84.829C343.359 84.908 343.505 84.976 343.654 85.035C344.161 84.068 344.514 83.172 344.68 82.429Z" fill="#E0E0E0"/>
<path d="M352.636 67.566C353.238 67.802 353.773 68.197 354.192 68.787C354.612 69.377 354.877 70.106 355.019 70.917C354.625 71.229 354.249 71.49 353.898 71.692C353.57 71.881 353.264 72.02 352.989 72.104C352.756 71.184 352.272 70.525 351.613 70.172C351.779 69.43 352.132 68.534 352.636 67.566Z" fill="#F0F0F0"/>
<path d="M357.516 61.509C358.549 60.913 359.169 61.294 359.66 61.988C360.375 62.993 360.579 64.313 358.686 66.966C358.473 67.264 358.234 67.58 357.966 67.913C356.966 69.152 355.947 70.179 355.024 70.915C354.877 70.106 354.612 69.378 354.193 68.788C353.773 68.198 353.239 67.803 352.637 67.567C353.252 66.386 354.087 65.106 355.084 63.865C355.353 63.531 355.606 63.234 355.845 62.971C356.502 62.244 357.051 61.777 357.516 61.509Z" fill="white"/>
<path d="M350.496 67.382C350.881 67.311 351.259 67.291 351.623 67.323C351.99 67.354 352.328 67.436 352.638 67.562C352.131 68.535 351.779 69.431 351.612 70.173C351.027 69.86 350.305 69.788 349.5 69.989C349.901 69.267 350.242 68.371 350.496 67.382Z" fill="#E0E0E0"/>
<path d="M342.401 80.907C342.727 80.719 343.03 80.581 343.303 80.498C343.536 81.418 344.021 82.077 344.68 82.43C344.514 83.173 344.161 84.069 343.656 85.036C343.507 84.977 343.361 84.909 343.221 84.83C342.796 84.591 342.415 84.258 342.1 83.815C341.785 83.375 341.556 82.853 341.402 82.277C341.351 82.087 341.308 81.891 341.273 81.689C341.67 81.373 342.049 81.111 342.401 80.907Z" fill="#F0F0F0"/>
<path d="M348.128 70.56C348.603 70.286 349.063 70.097 349.498 69.988C350.302 69.787 351.024 69.859 351.61 70.172C352.269 70.525 352.754 71.184 352.986 72.104C353.085 72.495 353.138 72.934 353.14 73.416C353.141 73.899 353.091 74.397 352.994 74.902C352.767 76.087 352.287 77.303 351.632 78.415C351.051 79.402 350.331 80.305 349.529 81.032C349.094 81.426 348.635 81.767 348.16 82.041C347.685 82.315 347.225 82.504 346.79 82.613C345.986 82.814 345.264 82.742 344.679 82.429C344.02 82.076 343.535 81.418 343.302 80.497C343.203 80.105 343.15 79.667 343.148 79.184C343.147 78.702 343.197 78.203 343.294 77.699C343.521 76.514 344 75.298 344.655 74.187C345.236 73.2 345.956 72.296 346.759 71.569C347.193 71.176 347.653 70.834 348.128 70.56Z" fill="#FF0000"/>
<g opacity="0.5">
<path d="M348.128 70.56C348.603 70.286 349.063 70.097 349.498 69.988C350.302 69.787 351.024 69.859 351.61 70.172C352.269 70.525 352.754 71.184 352.986 72.104C353.085 72.495 353.138 72.934 353.14 73.416C353.141 73.899 353.091 74.397 352.994 74.902C352.767 76.087 352.287 77.303 351.632 78.415C351.051 79.402 350.331 80.305 349.529 81.032C349.094 81.426 348.635 81.767 348.16 82.041C347.685 82.315 347.225 82.504 346.79 82.613C345.986 82.814 345.264 82.742 344.679 82.429C344.02 82.076 343.535 81.418 343.302 80.497C343.203 80.105 343.15 79.667 343.148 79.184C343.147 78.702 343.197 78.203 343.294 77.699C343.521 76.514 344 75.298 344.655 74.187C345.236 73.2 345.956 72.296 346.759 71.569C347.193 71.176 347.653 70.834 348.128 70.56Z" fill="white"/>
</g>
<path d="M338.724 72.358C339.189 72.09 339.739 71.922 340.399 71.886C340.639 71.873 340.892 71.877 341.162 71.9C342.162 71.988 343.002 72.301 343.619 72.768C343.022 73.699 342.492 74.709 342.077 75.781C341.662 76.852 341.402 77.884 341.264 78.858C340.336 79.19 339.315 79.341 338.311 79.259C338.042 79.236 337.801 79.197 337.588 79.145C335.686 78.683 335.882 77.132 336.589 75.306C337.075 74.048 337.691 72.954 338.724 72.358Z" fill="white"/>
<path d="M341.262 78.859C341.66 78.715 342.037 78.54 342.388 78.338C342.716 78.148 343.022 77.934 343.297 77.7C343.201 78.204 343.15 78.703 343.151 79.185C343.152 79.668 343.206 80.106 343.305 80.498C343.031 80.581 342.728 80.719 342.403 80.907C342.05 81.111 341.671 81.373 341.275 81.689C341.31 81.89 341.353 82.087 341.404 82.277C341.353 82.087 341.31 81.891 341.275 81.689C341.197 81.274 341.157 80.823 341.156 80.338C341.154 79.854 341.191 79.359 341.262 78.859Z" fill="#E0E0E0"/>
<path d="M353.198 59.523C353.728 59.217 354.25 59.156 354.769 59.201C356.003 59.303 356.801 59.972 355.842 62.97C355.603 63.233 355.35 63.53 355.081 63.864C354.084 65.105 353.249 66.385 352.637 67.561C352.326 67.436 351.988 67.354 351.622 67.322C351.257 67.29 350.88 67.31 350.496 67.375C350.805 66.175 350.981 64.838 350.977 63.513C350.976 63.158 350.962 62.84 350.936 62.556C351.718 60.834 352.466 59.945 353.198 59.523Z" fill="#F0F0F0"/>
<path d="M348.122 68.266C348.956 67.784 349.752 67.503 350.494 67.381C350.241 68.37 349.9 69.266 349.499 69.987C349.063 70.096 348.604 70.285 348.129 70.559C347.654 70.833 347.195 71.175 346.76 71.568C346.357 71.311 346.012 70.811 345.754 70.117C346.493 69.385 347.288 68.748 348.122 68.266Z" fill="#F0F0F0"/>
<path d="M345.752 70.114C346.011 70.812 346.357 71.312 346.76 71.569C345.957 72.295 345.238 73.2 344.656 74.187C344.486 73.639 344.129 73.153 343.621 72.769C343.927 72.284 344.264 71.813 344.629 71.359C344.992 70.907 345.369 70.492 345.752 70.114Z" fill="#E0E0E0"/>
<path d="M348.101 60.993C349.524 60.171 350.705 60.012 350.935 62.557C350.961 62.841 350.975 63.159 350.976 63.514C350.98 64.839 350.804 66.176 350.495 67.376C349.752 67.504 348.956 67.785 348.122 68.267C347.287 68.749 346.493 69.385 345.753 70.119C345.437 69.275 345.254 68.145 345.25 66.82C345.249 66.465 345.261 66.132 345.285 65.819C345.5 63.017 346.678 61.814 348.101 60.993Z" fill="white"/>
<path d="M343.016 65.403C343.747 64.981 344.498 65.004 345.288 65.819C345.264 66.132 345.252 66.465 345.253 66.82C345.257 68.145 345.44 69.275 345.754 70.115C345.371 70.493 344.995 70.907 344.631 71.36C344.266 71.814 343.929 72.285 343.62 72.768C343.003 72.302 342.163 71.988 341.163 71.9C340.893 71.877 340.639 71.873 340.4 71.886C339.427 70.004 340.219 68.417 341.448 66.893C341.965 66.249 342.485 65.709 343.016 65.403Z" fill="#F0F0F0"/>
<path d="M343.623 72.769C344.131 73.153 344.488 73.639 344.658 74.187C344.003 75.298 343.523 76.514 343.297 77.699C343.022 77.933 342.716 78.147 342.388 78.337C342.037 78.539 341.66 78.714 341.266 78.857C341.404 77.883 341.664 76.851 342.079 75.78C342.494 74.709 343.024 73.699 343.623 72.769Z" fill="#F0F0F0"/>
<path d="M337.589 79.145C337.803 79.197 338.043 79.235 338.312 79.259C339.316 79.341 340.337 79.19 341.261 78.859C341.19 79.359 341.152 79.854 341.154 80.338C341.155 80.823 341.196 81.274 341.27 81.692C340.347 82.424 339.328 83.451 338.328 84.694C338.062 85.025 337.824 85.338 337.612 85.635C335.287 86.72 334.829 85.628 334.824 83.993C334.819 82.358 335.269 80.743 337.589 79.145Z" fill="#F0F0F0"/>
<path d="M352.672 79.834C353.289 80.3 354.128 80.613 355.129 80.701C355.399 80.724 355.653 80.728 355.892 80.715C356.865 82.597 356.073 84.184 354.844 85.713C354.327 86.355 353.808 86.895 353.278 87.2C352.546 87.623 351.795 87.599 351.005 86.785C351.029 86.472 351.041 86.14 351.04 85.785C351.036 84.456 350.854 83.326 350.539 82.486C350.922 82.108 351.298 81.694 351.662 81.241C352.027 80.788 352.364 80.316 352.672 79.834Z" fill="#F0F0F0"/>
</svg>
